<svg width="20" height="20" viewBox="0 0 20 20" fill="none" xmlns="http://www.w3.org/2000/svg">
<path d="M9.89583 0C7.27129 0 4.75425 1.04259 2.89842 2.89842C1.04259 4.75425 0 7.27129 0 9.89583C0 12.5204 1.04259 15.0374 2.89842 16.8932C4.75425 18.7491 7.27129 19.7917 9.89583 19.7917C12.5204 19.7917 15.0374 18.7491 16.8932 16.8932C18.7491 15.0374 19.7917 12.5204 19.7917 9.89583C19.7917 7.27129 18.7491 4.75425 16.8932 2.89842C15.0374 1.04259 12.5204 0 9.89583 0Z" fill="#039BE5"/>
<path d="M11.2355 12.5188H13.7965L14.1985 9.91728H11.235V8.4954C11.235 7.41467 11.5881 6.45634 12.5991 6.45634H14.2235V4.18603C13.9381 4.14749 13.3345 4.06311 12.1938 4.06311C9.81208 4.06311 8.41572 5.32092 8.41572 8.18655V9.91728H5.96729V12.5188H8.41572V19.6694C8.90062 19.7423 9.39176 19.7918 9.89593 19.7918C10.3517 19.7918 10.7965 19.7501 11.2355 19.6907V12.5188Z" fill="white"/>
</svg>
