<svg width="582" height="455" viewBox="0 0 582 455" fill="none" xmlns="http://www.w3.org/2000/svg">
<path d="M541.204 268.305C541.053 273.336 541.167 278.372 541.544 283.391C541.579 283.912 541.611 284.433 541.651 284.953C542.538 296.758 544.27 308.656 544.544 320.45C544.544 320.561 544.544 320.666 544.544 320.771C544.827 335.179 535.204 347.439 521.965 351.225C521.366 351.394 520.764 351.55 520.153 351.69C517.912 352.184 515.624 352.433 513.33 352.431H54.4149C50.6455 352.432 46.8981 351.858 43.3022 350.727C42.6825 350.532 42.0675 350.322 41.4571 350.095C40.2901 349.66 39.1461 349.165 38.0294 348.613C37.4159 348.308 36.814 347.988 36.2191 347.653C28.8487 343.504 23.145 336.927 20.08 329.044C20.0498 328.958 20.0149 328.876 19.987 328.797C4.97258 289.889 6.74103 242.071 34.2392 210.666C44.6199 198.815 57.6823 190.168 71.4209 182.299L72.8663 181.474C76.4404 179.448 80.0563 177.47 83.6792 175.493C84.1045 175.26 84.5367 175.028 84.962 174.795C97.1808 168.14 109.428 161.473 120.382 153.184C120.933 152.768 121.477 152.347 122.009 151.922C124.314 150.118 126.554 148.231 128.729 146.261C154.785 122.557 167.445 88.0273 186.112 58.1866C186.533 57.515 186.954 56.8504 187.391 56.1835C187.665 55.7582 187.941 55.3329 188.225 54.9077C190.739 51.0942 193.451 47.3389 196.344 43.6927C196.716 43.228 197.095 42.7632 197.471 42.2868C200.934 38.0214 204.646 33.9639 208.586 30.1354C209.169 29.573 209.756 29.016 210.348 28.4645C225.472 14.3843 243.665 4.51022 263.362 4.58458C264.238 4.58458 265.119 4.61015 266 4.65197C267.58 4.72944 269.169 4.87274 270.768 5.08189C284.737 6.91774 296.853 13.55 308.31 21.9043C308.775 22.2343 309.219 22.5689 309.67 22.9059C315.579 27.3026 321.324 32.1246 327.075 36.9536C327.54 37.344 328.005 37.7297 328.453 38.1155C340.67 48.3683 352.965 58.4841 366.936 64.3751C367.473 64.6074 368.015 64.8212 368.563 65.0327C368.935 65.1783 369.307 65.3216 369.681 65.4626C370.155 65.6439 370.632 65.8174 371.112 65.9832C374.593 67.2146 378.174 68.1399 381.816 68.7486C403.934 72.4295 425.504 63.4711 447.435 57.687C448.032 57.5267 448.627 57.371 449.224 57.2222C454.291 55.893 459.429 54.8472 464.613 54.0897C500.681 49.1027 538.906 65.114 560.558 94.2924C571.624 109.191 578.126 127.21 579.792 145.65C579.866 146.486 579.934 147.32 579.987 148.15C581.112 165.012 578.203 182.129 571.054 197.465C562.754 215.27 549.266 230.724 543.956 249.628C543.656 250.685 543.391 251.743 543.147 252.805C542.957 253.632 542.785 254.457 542.622 255.284C541.918 259.023 541.47 262.805 541.281 266.604C541.25 267.171 541.225 267.738 541.204 268.305Z" fill="#2EC4B6"/>
<path d="M556.763 296.491C545.976 310.499 531.561 320.441 515.849 324.789C515.775 323.892 515.707 322.995 515.64 322.095C516.398 321.879 517.146 321.651 517.894 321.398C548.801 311.343 572.347 278.639 571.457 245.408C570.992 227.979 563.82 211.066 552.578 197.723C544.732 188.413 534.905 180.847 523.994 176.048C518.749 173.73 513.229 172.09 507.569 171.168C495.46 169.225 482.495 170.199 469.96 171.14C459.64 171.916 448.971 172.718 438.967 171.851C427.661 170.875 418.373 167.817 410.569 162.509C394.005 151.248 386.819 131.06 383.726 114.605C383.458 113.188 383.22 111.8 383.013 110.443C382.992 110.329 382.976 110.211 382.959 110.106C381.698 101.812 381.065 93.3117 380.454 85.0945C379.599 73.6379 378.718 61.7863 376.12 50.4691C370.985 28.1299 358.571 11.2261 342.912 5.25384C327.254 -0.718468 310.065 4.38239 297.146 12.3439C294.775 13.8052 292.489 15.4012 290.3 17.1241C279.12 25.9315 270.015 37.3881 261.317 48.7285L259.161 51.5334C256.883 54.5126 254.529 57.5917 252.171 60.5802C240.784 75.0299 226.589 90.7531 207.648 97.8409C197.688 101.559 186.689 102.881 174.105 101.831C173.106 101.747 172.1 101.652 171.084 101.538C158.789 100.183 146.126 96.8277 133.882 93.5952C131.488 92.9631 129.09 92.3264 126.678 91.7036C110.341 87.4742 93.6325 83.7816 77.2748 85.141C52.4747 87.2069 28.7318 101.784 15.3092 123.185C1.88666 144.585 -1.14365 172.718 7.39187 196.588C10.0062 203.909 13.5478 210.662 17.7539 216.992C23.5287 225.678 30.563 233.561 38.2039 240.986C37.5532 241.574 36.9095 242.173 36.2727 242.782C33.653 240.24 31.1231 237.649 28.683 235.011C24.7291 230.743 21.05 226.229 17.668 221.496C12.0907 213.641 7.89382 205.693 4.96344 197.499C0.624805 185.367 -0.911262 171.937 0.520233 158.668C1.95173 145.399 6.31128 132.641 13.1341 121.76C19.957 110.88 29.4731 101.496 40.6764 94.6154C51.8798 87.7344 64.4611 83.5492 77.0657 82.4988C94.9594 81.0115 113.06 85.3734 130.661 90.0048L134.53 91.0273C148.622 94.7455 162.284 98.3754 175.627 99.3258C186.178 100.086 196.542 99.1817 206.767 95.359C225.125 88.4967 238.997 73.0918 250.165 58.9233C252.51 55.9487 254.857 52.8813 257.137 49.909L258.477 48.1569C267.52 36.347 276.95 24.3095 288.732 15.028C290.326 13.7731 291.953 12.5887 293.612 11.4748C300.421 6.91539 307.75 3.57369 315.091 1.70066C325.249 -0.888111 335.186 -0.516292 343.828 2.78126C352.712 6.16944 360.392 12.5159 366.66 21.644C372.07 29.5265 376.216 39.2867 378.646 49.8719C381.293 61.3842 382.186 73.3428 383.043 84.897C383.652 93.0654 384.279 101.51 385.527 109.702C385.546 109.825 385.564 109.946 385.583 110.071C385.948 112.407 386.387 114.854 386.935 117.364C390.24 132.624 397.244 150.269 412.01 160.308C428.609 171.598 448.608 170.092 469.774 168.502C482.458 167.55 495.569 166.562 507.978 168.553C512.602 169.301 517.14 170.509 521.524 172.16C533.064 176.48 543.761 183.819 552.599 193.581C553.094 194.123 553.579 194.676 554.06 195.231C566.472 209.658 573.581 227.454 574.045 245.343C574.51 263.232 568.389 281.398 556.763 296.491Z" fill="#FFBC06"/>
<g style="mix-blend-mode:multiply" opacity="0.2">
<path d="M125.66 192.633C160.504 192.633 188.751 163.782 188.751 128.193C188.751 92.6033 160.504 63.7523 125.66 63.7523C90.8163 63.7523 62.5698 92.6033 62.5698 128.193C62.5698 163.782 90.8163 192.633 125.66 192.633Z" fill="#1A1A1A"/>
</g>
<path d="M117.134 182.913C151.978 182.913 180.224 154.062 180.224 118.472C180.224 82.8826 151.978 54.0316 117.134 54.0316C82.29 54.0316 54.0435 82.8826 54.0435 118.472C54.0435 154.062 82.29 182.913 117.134 182.913Z" fill="#00524A"/>
<path d="M117.134 173.192C146.721 173.192 170.706 148.693 170.706 118.472C170.706 88.2512 146.721 63.7523 117.134 63.7523C87.5469 63.7523 63.562 88.2512 63.562 118.472C63.562 148.693 87.5469 173.192 117.134 173.192Z" fill="white"/>
<path d="M118.177 63.7523H116.344V71.5465H118.177V63.7523Z" fill="#022601"/>
<path d="M63.562 117.405V119.279H71.1912V117.405H63.562Z" fill="#022601"/>
<path d="M170.708 118.472C170.708 148.694 146.721 173.192 117.134 173.192C100.544 173.192 85.713 165.488 75.8877 153.39C81.1614 155.112 86.6746 155.986 92.2221 155.981C121.821 155.981 145.794 131.474 145.794 101.264C145.831 88.5538 141.48 76.2202 133.477 66.3457C155.068 73.3986 170.708 94.06 170.708 118.472Z" fill="#E1E1E1"/>
<path d="M116.09 173.192H117.924V165.398H116.09V173.192Z" fill="#022601"/>
<path d="M170.706 119.536V117.663H163.076V119.536H170.706Z" fill="#022601"/>
<path d="M117.133 175.281C109.687 175.293 102.318 173.773 95.4844 170.815C88.8543 167.949 82.849 163.814 77.8069 158.642C72.7121 153.444 68.6655 147.314 65.8878 140.586C60.0595 126.419 60.0595 110.525 65.8878 96.3583C68.6655 89.6305 72.7121 83.5002 77.8069 78.3019C82.8496 73.1309 88.8548 68.9959 95.4844 66.1296C102.322 63.183 109.689 61.6631 117.135 61.6631C124.58 61.6631 131.947 63.183 138.785 66.1296C145.414 68.9959 151.42 73.1309 156.462 78.3019C161.557 83.5001 165.603 89.6305 168.379 96.3583C174.21 110.524 174.21 126.42 168.379 140.586C165.603 147.314 161.557 153.444 156.462 158.642C151.42 163.814 145.415 167.949 138.785 170.815C131.95 173.773 124.581 175.293 117.133 175.281ZM117.133 65.8414C88.722 65.8414 65.6066 89.4518 65.6066 118.472C65.6066 147.492 88.722 171.103 117.133 171.103C145.545 171.103 168.663 147.492 168.663 118.472C168.663 89.4518 145.547 65.8414 117.133 65.8414Z" fill="#FFBC06"/>
<path d="M117.134 123.701C116.094 123.724 115.071 123.438 114.196 122.877C113.32 122.317 112.631 121.508 112.217 120.555C111.803 119.601 111.682 118.545 111.871 117.523C112.059 116.501 112.548 115.557 113.275 114.814C114.002 114.071 114.934 113.561 115.952 113.349C116.97 113.138 118.028 113.235 118.99 113.627C119.953 114.02 120.777 114.69 121.357 115.553C121.937 116.416 122.246 117.432 122.246 118.472C122.259 119.843 121.728 121.162 120.77 122.142C119.811 123.122 118.504 123.682 117.134 123.701ZM117.134 116.032C116.648 116.022 116.171 116.157 115.762 116.419C115.353 116.681 115.032 117.06 114.839 117.505C114.646 117.951 114.59 118.444 114.679 118.922C114.767 119.399 114.996 119.839 115.336 120.187C115.676 120.534 116.111 120.771 116.587 120.87C117.062 120.969 117.556 120.923 118.006 120.74C118.456 120.556 118.84 120.243 119.111 119.84C119.382 119.437 119.527 118.962 119.527 118.477C119.531 118.159 119.472 117.843 119.354 117.548C119.235 117.253 119.06 116.984 118.838 116.756C118.616 116.529 118.351 116.347 118.058 116.222C117.766 116.097 117.452 116.031 117.134 116.027V116.032Z" fill="#AEAEAE"/>
<path d="M114.74 118.472L116.857 75.4297C116.864 75.3604 116.896 75.296 116.947 75.2492C116.998 75.2023 117.065 75.1763 117.135 75.1763C117.205 75.1763 117.272 75.2023 117.323 75.2492C117.374 75.296 117.406 75.3604 117.413 75.4297L119.527 118.472H114.74Z" fill="#AEAEAE"/>
<path d="M116.625 116.027L148.594 118.189C148.669 118.189 148.741 118.218 148.794 118.272C148.847 118.325 148.877 118.397 148.877 118.472C148.877 118.547 148.847 118.619 148.794 118.673C148.741 118.726 148.669 118.756 148.594 118.756L116.625 120.917V116.027Z" fill="#AEAEAE"/>
<path d="M116.344 118.749L145.894 87.9041L117.35 119.297L116.344 118.749Z" fill="#022601"/>
<path d="M117.134 121.904C118.99 121.904 120.494 120.368 120.494 118.472C120.494 116.577 118.99 115.04 117.134 115.04C115.278 115.04 113.773 116.577 113.773 118.472C113.773 120.368 115.278 121.904 117.134 121.904Z" fill="#055902"/>
<g style="mix-blend-mode:multiply" opacity="0.2">
<path d="M524.296 63.2271H361.222C354.364 63.2271 348.803 68.9066 348.803 75.913V181.593C348.803 188.597 354.364 194.276 361.222 194.276H524.296C531.154 194.276 536.713 188.597 536.713 181.593V75.913C536.713 68.9066 531.154 63.2271 524.296 63.2271Z" fill="#1A1A1A"/>
</g>
<path d="M535.837 52.2004H372.765C365.905 52.2004 360.346 57.8799 360.346 64.884V170.564C360.346 177.57 365.905 183.247 372.765 183.247H535.837C542.697 183.247 548.255 177.57 548.255 170.564V64.884C548.248 57.8799 542.697 52.2004 535.837 52.2004Z" fill="#00524A"/>
<path d="M390.719 129.803H375.958V157.829H390.719V129.803Z" fill="white"/>
<path d="M419.102 105.063H404.341V157.831H419.102V105.063Z" fill="white"/>
<path d="M447.488 108.784H432.727V157.831H447.488V108.784Z" fill="white"/>
<path d="M475.874 90.5673H461.113V157.831H475.874V90.5673Z" fill="#FFBC06"/>
<path d="M504.26 102.937H489.499V157.831H504.26V102.937Z" fill="white"/>
<path d="M532.644 77.6164H517.883V157.831H532.644V77.6164Z" fill="#FFBC06"/>
<path d="M103.878 267.935C104.408 285.766 91.3598 302.37 76.3733 313.518C61.3867 324.665 64.9143 334.749 64.9143 334.749L64.3427 334.844L58.9188 335.757C58.9188 335.757 50.1927 319.149 62.1373 300.925C72.5273 285.074 73.745 280.707 76.2083 267.852C76.5778 265.93 76.9728 263.82 77.4329 261.454C80.9582 243.265 93.1236 229.432 110.578 223.652C110.578 223.652 100.881 230.298 103.878 267.935Z" fill="#2CBF7B"/>
<path d="M50.7107 338.332C50.1901 339.122 49.8555 339.538 49.8555 339.538L44.5408 337.489L44.1714 337.347C44.1714 337.347 44.2318 337.244 44.3247 337.042C44.8687 335.799 45.1911 334.47 45.2775 333.115C45.5099 330.199 44.9801 325.89 41.7685 320.548C41.1168 319.468 40.4102 318.422 39.6515 317.415C38.8776 316.383 38.0062 315.324 37.0209 314.229C24.472 300.286 14.8768 281.388 18.8274 264.013C29.0105 227.712 20.7818 219.246 20.7818 219.246C36.7838 228.421 46.0514 244.425 46.0049 262.969C45.9793 273.861 45.7051 279.378 47.1505 286.187C47.369 287.221 47.6269 288.279 47.9337 289.408C49.0375 293.451 50.7548 298.194 53.404 304.745C54.9524 308.505 55.9012 312.485 56.2159 316.539C57.0223 327.447 52.6302 335.423 50.7107 338.332Z" fill="#2DA66D"/>
<g style="mix-blend-mode:multiply" opacity="0.2">
<path d="M56.2206 316.539C53.6481 327.05 50.7549 338.176 50.7154 338.332C50.1949 339.122 49.8603 339.538 49.8603 339.538L44.5456 337.489C44.4728 337.344 44.4007 337.196 44.3295 337.042C44.8735 335.799 45.1959 334.47 45.2823 333.115C45.5146 330.199 44.9848 325.89 41.7732 320.548C41.1216 319.468 40.415 318.422 39.6562 317.415C39.375 308.966 41.0877 301.227 43.4534 296.217C44.9547 292.978 46.1927 289.624 47.1553 286.187C47.3737 287.221 47.6317 288.279 47.9384 289.408C49.0423 293.451 50.7596 298.194 53.4088 304.745C54.9571 308.505 55.9059 312.485 56.2206 316.539Z" fill="#2645A8"/>
</g>
<path d="M60.7151 335.095C60.6468 335.094 60.5792 335.08 60.5163 335.054C60.4534 335.027 60.3963 334.988 60.3484 334.939C60.3005 334.89 60.2627 334.833 60.2371 334.769C60.2115 334.706 60.1986 334.638 60.1992 334.57C60.1992 325.481 63.8082 315.781 71.2283 304.91C72.5807 302.928 74.0425 300.981 75.4554 299.101C78.7088 294.774 82.0644 290.298 84.2697 285.158C86.0521 281.003 85.9336 276.834 85.8081 272.418C85.7384 270.027 85.6687 267.554 85.9266 265.084C87.1467 253.465 90.5744 245.448 97.03 239.113C97.0785 239.065 97.1359 239.028 97.199 239.003C97.262 238.978 97.3294 238.966 97.3971 238.968C97.4649 238.969 97.5317 238.984 97.5935 239.012C97.6554 239.04 97.7111 239.08 97.7574 239.129C97.8519 239.23 97.9034 239.364 97.9008 239.502C97.8982 239.641 97.8417 239.773 97.7435 239.87C91.469 246.022 88.1413 253.832 86.9515 265.2C86.6982 267.596 86.7679 270.034 86.8353 272.388C86.9584 276.727 87.0863 281.219 85.2086 285.583C82.9521 290.846 79.5523 295.373 76.2664 299.758C74.8604 301.631 73.408 303.57 72.0672 305.531C64.7703 316.221 61.2241 325.725 61.2241 334.579C61.2235 334.714 61.1699 334.844 61.0748 334.941C60.9797 335.037 60.8506 335.092 60.7151 335.095Z" fill="#033A3F"/>
<path d="M50.3853 343.582C50.3482 343.586 50.3108 343.586 50.2737 343.582C50.1392 343.55 50.0225 343.467 49.949 343.35C49.8755 343.233 49.851 343.091 49.881 342.957C52.1793 332.304 47.6873 321.238 44.1085 313.839C43.1023 311.747 42.017 309.656 40.9806 307.622C37.4181 300.676 33.7348 293.493 32.129 285.699C30.6348 278.453 30.9927 270.922 31.3366 263.639C31.3924 262.437 31.4528 261.194 31.5016 259.974C31.8432 251.548 31.7038 242.685 28.4062 234.958C28.3504 234.83 28.3471 234.685 28.3971 234.554C28.4471 234.424 28.5463 234.318 28.6735 234.261C28.7356 234.233 28.8026 234.218 28.8705 234.217C28.9384 234.216 29.0059 234.229 29.0689 234.254C29.1319 234.279 29.1893 234.317 29.2375 234.365C29.2857 234.413 29.3239 234.47 29.3497 234.532C32.7286 242.452 32.875 251.459 32.5287 260.011C32.4799 261.234 32.4218 262.479 32.3638 263.683C32.0221 270.901 31.6666 278.363 33.1353 285.476C34.7108 293.126 38.3616 300.244 41.8916 307.13C42.9373 309.168 44.0179 311.275 45.0311 313.367C47.6477 318.774 49.4185 323.529 50.4457 327.9C51.7563 333.478 51.9004 338.474 50.8872 343.175C50.8619 343.29 50.7985 343.392 50.7073 343.466C50.6162 343.54 50.5026 343.581 50.3853 343.582Z" fill="#033A3F"/>
<g style="mix-blend-mode:multiply" opacity="0.2">
<path d="M77.4538 285.527C76.7977 293.122 74.3046 300.443 70.1895 306.86C65.5557 314.138 63.9151 320.257 63.3643 324.108C62.7229 328.523 63.2202 331.776 63.8407 333.229C64.0671 333.751 64.2355 334.297 64.3427 334.856L58.9188 335.769C58.9188 335.769 50.1927 319.16 62.1373 300.937C72.5273 285.086 73.745 280.719 76.2083 267.863C76.2594 268.147 76.3082 268.424 76.357 268.695C76.4848 269.393 76.6033 270.046 76.6963 270.685C76.7288 270.912 76.766 271.159 76.8078 271.424C77.2238 274.173 77.9976 279.306 77.4538 285.527Z" fill="#2645A8"/>
</g>
<path d="M50.3111 332.769C50.3111 332.769 40.0861 317.101 51.3684 294.409C56.4809 279.462 47.4899 261.452 52.2515 244.885C57.0131 228.318 73.2313 229.218 77.6396 210.848L80.4561 200.764C80.4561 200.764 88.5664 226.155 76.9308 244.885C68.4674 257.666 71.4651 266.497 72.1693 271.358C72.8734 276.22 75.5203 289.907 66.3596 304.313C57.199 318.719 57.7219 330.607 59.66 335.109C61.598 339.61 50.3111 332.769 50.3111 332.769Z" fill="#027369"/>
<path d="M55.7956 340.893C55.6691 340.893 55.5471 340.846 55.454 340.761C53.6298 339.101 53.0279 334.784 52.6282 331.93C52.5655 331.481 52.505 331.061 52.4493 330.701C52.0542 328.193 52.2517 325.658 52.4493 323.206C52.519 322.316 52.5887 321.398 52.6282 320.508C52.8141 316.325 53.093 312.816 54.7894 308.722C55.2193 307.683 55.6748 306.63 56.1163 305.617C57.2109 303.093 58.3426 300.483 59.1815 297.848C61.5541 290.386 61.998 281.295 60.3945 272.904C58.2241 261.517 59.867 250.744 65.1515 241.727C66.4854 239.45 68.0075 237.312 69.4785 235.257C72.3787 231.198 75.1162 227.356 76.4501 222.595C76.4678 222.529 76.4984 222.468 76.5401 222.414C76.5818 222.36 76.6338 222.315 76.6931 222.281C76.7523 222.248 76.8176 222.227 76.8852 222.219C76.9528 222.21 77.0213 222.216 77.0868 222.235C77.2188 222.275 77.3297 222.365 77.3957 222.487C77.4618 222.608 77.4777 222.75 77.44 222.883C76.0457 227.83 73.2571 231.739 70.3104 235.876C68.851 237.918 67.3429 240.031 66.0345 242.266C60.8825 251.057 59.2814 261.582 61.4054 272.709C63.0623 281.395 62.6208 290.44 60.1598 298.178C59.3046 300.865 58.1613 303.5 57.0575 306.047C56.6183 307.058 56.1628 308.103 55.7352 309.135C54.1085 313.069 53.8366 316.493 53.6554 320.559C53.6159 321.468 53.5438 322.395 53.4741 323.292C53.2905 325.683 53.1 328.156 53.4741 330.538C53.5322 330.907 53.5926 331.333 53.6554 331.786C53.9946 334.21 54.4873 337.746 55.6957 339.455C55.7773 339.44 55.8612 339.445 55.9401 339.47C56.0191 339.495 56.0908 339.539 56.1489 339.599C56.2465 339.685 56.3224 339.793 56.3704 339.914C56.4184 340.035 56.4373 340.166 56.4254 340.296C56.4121 340.406 56.3732 340.511 56.3119 340.604C56.2506 340.696 56.1685 340.773 56.0722 340.828C55.9879 340.875 55.8921 340.898 55.7956 340.893Z" fill="#033A3F"/>
<path d="M67.8865 328.807H42.259C38.9731 328.807 36.533 331.916 37.2511 335.19L40.8252 351.543C41.0673 352.695 41.6957 353.728 42.6061 354.474C43.5165 355.219 44.6543 355.63 45.8308 355.64H64.3054C65.4832 355.632 66.6228 355.222 67.5347 354.476C68.4467 353.731 69.076 352.696 69.318 351.543L72.8944 335.193C73.6101 331.916 71.1608 328.807 67.8865 328.807Z" fill="white"/>
<g style="mix-blend-mode:multiply" opacity="0.2">
<path d="M69.2602 351.776C68.9751 352.874 68.3353 353.847 67.4402 354.544C66.5451 355.241 65.4449 355.623 64.3104 355.631H45.8311C44.6558 355.622 43.5189 355.212 42.6085 354.468C41.6982 353.725 41.0691 352.693 40.8255 351.543L37.2514 335.193C36.5357 331.918 38.9734 328.809 42.2593 328.809H42.2872C43.2609 341.737 53.8391 351.915 66.7435 351.915C67.5842 351.912 68.4243 351.866 69.2602 351.776Z" fill="#2645A8"/>
</g>
<path d="M575.3 267.935C575.828 285.766 562.782 302.37 547.795 313.518C532.809 324.665 536.334 334.749 536.334 334.749L535.762 334.844L530.341 335.757C530.341 335.757 521.615 319.149 533.557 300.925C543.947 285.074 545.176 280.707 547.628 267.852C547.997 265.93 548.392 263.82 548.853 261.454C552.38 243.265 564.543 229.432 582 223.652C582 223.652 572.302 230.298 575.3 267.935Z" fill="#2CBF7B"/>
<path d="M522.137 338.332C521.619 339.122 521.282 339.538 521.282 339.538L515.967 337.489L515.598 337.347C515.655 337.248 515.707 337.147 515.754 337.042C516.295 335.798 516.617 334.469 516.704 333.115C516.937 330.199 516.409 325.89 513.197 320.548C512.545 319.468 511.838 318.422 511.078 317.415C510.304 316.383 509.433 315.324 508.45 314.229C495.901 300.286 486.303 281.388 490.254 264.013C500.439 227.712 492.211 219.246 492.211 219.246C508.213 228.421 517.478 244.425 517.434 262.969C517.408 273.861 517.134 279.378 518.577 286.187C518.796 287.221 519.056 288.279 519.36 289.408C520.466 293.451 522.181 298.194 524.833 304.745C526.38 308.506 527.329 312.485 527.645 316.539C528.444 327.447 524.052 335.423 522.137 338.332Z" fill="#2DA66D"/>
<g style="mix-blend-mode:multiply" opacity="0.2">
<path d="M527.643 316.539C525.068 327.05 522.177 338.176 522.138 338.332C521.62 339.122 521.283 339.538 521.283 339.538L515.968 337.489C515.898 337.344 515.826 337.196 515.754 337.042C516.296 335.798 516.617 334.469 516.705 333.115C516.937 330.199 516.41 325.89 513.198 320.548C512.545 319.468 511.838 318.422 511.079 317.415C510.8 308.966 512.51 301.227 514.876 296.217C516.378 292.979 517.616 289.625 518.578 286.187C518.796 287.221 519.056 288.279 519.361 289.408C520.467 293.451 522.182 298.194 524.834 304.745C526.38 308.506 527.328 312.485 527.643 316.539Z" fill="#2645A8"/>
</g>
<path d="M532.135 335.095C532.066 335.094 531.999 335.08 531.936 335.053C531.873 335.027 531.817 334.988 531.769 334.939C531.721 334.89 531.683 334.832 531.658 334.769C531.633 334.706 531.62 334.638 531.621 334.57C531.621 325.481 535.228 315.781 542.648 304.91C544.003 302.928 545.464 300.981 546.877 299.101C550.131 294.774 553.484 290.298 555.692 285.158C557.472 281.003 557.353 276.834 557.228 272.418C557.16 270.027 557.091 267.554 557.349 265.084C558.569 253.465 561.996 245.448 568.452 239.113C568.5 239.065 568.558 239.028 568.621 239.003C568.684 238.978 568.751 238.966 568.819 238.968C568.887 238.969 568.954 238.984 569.015 239.012C569.077 239.04 569.133 239.08 569.179 239.129C569.274 239.23 569.325 239.365 569.322 239.503C569.319 239.641 569.262 239.773 569.163 239.87C562.889 246.022 559.563 253.832 558.371 265.2C558.12 267.596 558.19 270.034 558.255 272.388C558.38 276.727 558.506 281.219 556.628 285.583C554.372 290.846 550.974 295.373 547.688 299.758C546.282 301.631 544.828 303.57 543.487 305.531C536.192 316.221 532.644 325.725 532.644 334.579C532.643 334.714 532.589 334.844 532.494 334.941C532.399 335.037 532.27 335.092 532.135 335.095Z" fill="#033A3F"/>
<path d="M521.805 343.582C521.768 343.586 521.731 343.586 521.694 343.582C521.559 343.55 521.443 343.467 521.37 343.35C521.296 343.232 521.273 343.091 521.303 342.957C523.599 332.304 519.107 321.238 515.528 313.839C514.522 311.747 513.437 309.656 512.403 307.622C508.838 300.676 505.155 293.493 503.549 285.699C502.057 278.453 502.413 270.922 502.757 263.639C502.815 262.437 502.873 261.194 502.922 259.974C503.263 251.548 503.124 242.685 499.828 234.958C499.771 234.83 499.767 234.685 499.817 234.554C499.866 234.424 499.966 234.318 500.093 234.261C500.156 234.233 500.223 234.218 500.291 234.217C500.359 234.216 500.427 234.228 500.49 234.254C500.553 234.279 500.611 234.317 500.659 234.365C500.708 234.412 500.746 234.47 500.772 234.532C504.151 242.452 504.295 251.459 503.951 260.011C503.9 261.234 503.842 262.479 503.786 263.683C503.444 270.901 503.089 278.363 504.555 285.476C506.133 293.126 509.784 300.244 513.314 307.13C514.36 309.168 515.44 311.275 516.451 313.367C519.068 318.774 520.838 323.529 521.866 327.9C523.176 333.478 523.32 338.474 522.307 343.175C522.282 343.29 522.218 343.392 522.127 343.466C522.036 343.54 521.923 343.581 521.805 343.582Z" fill="#033A3F"/>
<g style="mix-blend-mode:multiply" opacity="0.2">
<path d="M548.876 285.527C548.218 293.122 545.724 300.443 541.609 306.86C536.978 314.138 535.335 320.257 534.784 324.108C534.142 328.523 534.642 331.776 535.26 333.229C535.488 333.751 535.656 334.296 535.762 334.856L530.341 335.769C530.341 335.769 521.615 319.16 533.557 300.937C543.947 285.086 545.176 280.719 547.628 267.863C547.679 268.147 547.73 268.424 547.779 268.695C547.904 269.393 548.023 270.046 548.116 270.685C548.15 270.912 548.187 271.159 548.227 271.424C548.646 274.173 549.41 279.306 548.876 285.527Z" fill="#2645A8"/>
</g>
<path d="M521.733 332.769C521.733 332.769 511.508 317.101 522.791 294.409C527.903 279.462 518.912 261.452 523.672 244.885C528.431 228.318 544.654 229.218 549.062 210.848L551.883 200.764C551.883 200.764 559.993 226.155 548.356 244.885C539.892 257.666 542.89 266.497 543.596 271.358C544.303 276.22 546.945 289.907 537.787 304.313C528.628 318.719 529.147 330.607 531.087 335.109C533.027 339.61 521.733 332.769 521.733 332.769Z" fill="#027369"/>
<path d="M527.215 340.893C527.089 340.893 526.967 340.846 526.873 340.761C525.052 339.101 524.447 334.784 524.048 331.93C523.985 331.481 523.927 331.061 523.869 330.701C523.476 328.193 523.671 325.658 523.869 323.206C523.936 322.316 524.008 321.398 524.048 320.508C524.231 316.325 524.512 312.816 526.206 308.722C526.639 307.683 527.094 306.63 527.533 305.617C528.628 303.093 529.762 300.483 530.599 297.848C532.974 290.386 533.415 281.295 531.814 272.904C529.641 261.517 531.286 250.744 536.569 241.727C537.902 239.45 539.425 237.312 540.898 235.257C543.796 231.198 546.533 227.356 547.869 222.595C547.887 222.529 547.918 222.468 547.96 222.414C548.002 222.361 548.054 222.316 548.113 222.282C548.172 222.249 548.237 222.227 548.305 222.219C548.372 222.211 548.441 222.216 548.506 222.235C548.639 222.274 548.75 222.365 548.816 222.486C548.882 222.608 548.898 222.75 548.859 222.883C547.465 227.83 544.676 231.739 541.73 235.876C540.273 237.918 538.765 240.031 537.454 242.266C532.302 251.057 530.703 261.582 532.825 272.709C534.484 281.395 534.04 290.44 531.579 298.178C530.724 300.865 529.583 303.5 528.477 306.047C528.038 307.058 527.585 308.103 527.157 309.135C525.53 313.069 525.256 316.493 525.077 320.559C525.035 321.468 524.966 322.395 524.896 323.292C524.71 325.683 524.519 328.156 524.896 330.538C524.954 330.907 525.014 331.333 525.077 331.786C525.416 334.21 525.911 337.746 527.12 339.454C527.201 339.44 527.285 339.446 527.364 339.471C527.443 339.496 527.515 339.54 527.573 339.599C527.671 339.685 527.746 339.793 527.794 339.914C527.843 340.035 527.861 340.166 527.849 340.296C527.835 340.406 527.795 340.511 527.734 340.603C527.672 340.696 527.59 340.772 527.494 340.828C527.409 340.876 527.312 340.899 527.215 340.893Z" fill="#033A3F"/>
<path d="M539.306 328.807H513.679C510.395 328.807 507.955 331.916 508.671 335.19L512.247 351.541C512.489 352.693 513.117 353.728 514.028 354.474C514.939 355.22 516.078 355.631 517.255 355.64H535.732C536.909 355.631 538.048 355.219 538.959 354.473C539.87 353.728 540.498 352.693 540.74 351.541L544.314 335.19C545.032 331.916 542.592 328.807 539.306 328.807Z" fill="white"/>
<g style="mix-blend-mode:multiply" opacity="0.2">
<path d="M540.68 351.776C540.395 352.873 539.756 353.847 538.861 354.544C537.966 355.241 536.866 355.623 535.732 355.631H517.255C516.078 355.622 514.939 355.211 514.028 354.466C513.117 353.721 512.489 352.686 512.247 351.534L508.671 335.183C507.955 331.909 510.395 328.8 513.679 328.8H513.709C514.68 341.727 525.258 351.906 538.163 351.906C539.003 351.906 539.843 351.862 540.68 351.776Z" fill="#2645A8"/>
</g>
<path d="M278.3 440.961C278.3 448.397 248.766 454.439 212.333 454.439C175.899 454.439 146.365 448.397 146.365 440.961C146.365 433.524 175.899 427.482 212.333 427.482C248.766 427.482 278.3 433.517 278.3 440.961Z" fill="#004848"/>
<path d="M413.553 437.802C413.553 445.239 384.019 451.281 347.586 451.281C311.153 451.281 281.619 445.239 281.619 437.802C281.619 430.366 311.155 424.324 347.586 424.324C384.017 424.324 413.553 430.361 413.553 437.802Z" fill="#004848"/>
<path d="M260.567 99.7674H237.998C235.328 99.7674 232.767 98.7068 230.879 96.8189C228.991 94.931 227.931 92.3704 227.931 89.7005C227.93 88.3784 228.191 87.0692 228.696 85.8477C229.202 84.6262 229.944 83.5163 230.879 82.5814C231.813 81.6465 232.923 80.905 234.145 80.3992C235.366 79.8934 236.676 79.6332 237.998 79.6335H260.567C263.237 79.6335 265.797 80.6942 267.685 82.5821C269.573 84.47 270.634 87.0306 270.634 89.7005C270.633 92.3702 269.572 94.9304 267.685 96.8182C265.797 98.706 263.237 99.7668 260.567 99.7674Z" fill="#168AC4"/>
<path d="M239.057 95.5287L235.346 106.125L249.124 95.5287H239.057Z" fill="#168AC4"/>
<path d="M261.608 88.2295H237.782C237.729 88.2298 237.677 88.2196 237.628 88.1997C237.58 88.1797 237.535 88.1503 237.498 88.1131C237.461 88.0759 237.432 88.0317 237.412 87.9831C237.392 87.9344 237.382 87.8823 237.382 87.8298C237.382 87.7774 237.392 87.7255 237.412 87.6771C237.432 87.6288 237.462 87.5849 237.499 87.5479C237.536 87.511 237.58 87.4818 237.629 87.462C237.677 87.4421 237.729 87.4321 237.782 87.4324H261.606C261.658 87.4321 261.71 87.4421 261.758 87.462C261.806 87.4819 261.85 87.5111 261.887 87.5481C261.924 87.585 261.954 87.629 261.973 87.6773C261.993 87.7257 262.003 87.7775 262.003 87.8298C262.003 87.8819 261.993 87.9337 261.974 87.982C261.954 88.0303 261.925 88.0743 261.888 88.1114C261.852 88.1485 261.808 88.1781 261.76 88.1983C261.712 88.2186 261.66 88.2292 261.608 88.2295Z" fill="#F9DFE2"/>
<path d="M249.819 91.4503H237.782C237.729 91.4506 237.677 91.4405 237.629 91.4207C237.58 91.4009 237.536 91.3716 237.499 91.3347C237.462 91.2978 237.432 91.2539 237.412 91.2055C237.392 91.1572 237.382 91.1053 237.382 91.0529C237.382 91.0003 237.392 90.9482 237.412 90.8996C237.432 90.8509 237.461 90.8068 237.498 90.7696C237.535 90.7324 237.58 90.703 237.628 90.683C237.677 90.663 237.729 90.6529 237.782 90.6532H249.817C249.869 90.6532 249.921 90.6636 249.969 90.6837C250.018 90.7038 250.062 90.7333 250.099 90.7704C250.136 90.8076 250.165 90.8516 250.185 90.9001C250.204 90.9486 250.214 91.0005 250.214 91.0529C250.214 91.1577 250.172 91.2581 250.098 91.3324C250.024 91.4067 249.924 91.4491 249.819 91.4503Z" fill="#F9DFE2"/>
<path d="M244.836 174.103C253.063 190.114 253.971 239.487 266.172 281.607C262.595 284.409 257.443 286.914 252.737 288.45C252.737 288.45 227.788 243.795 224.67 185.776C224.119 175.537 238.362 161.505 244.836 174.103Z" fill="white"/>
<path d="M220.796 298.622L291.793 286.315L282.17 237.244L212.333 249.816L220.796 298.622Z" fill="#8C8C8C"/>
<path d="M289.497 286.712L279.551 238.804L212.333 249.816L220.796 298.622L289.497 286.712Z" fill="#E2E2E2"/>
<path d="M245.555 268.266C245.555 269.326 245.869 270.362 246.458 271.244C247.047 272.126 247.885 272.813 248.864 273.219C249.844 273.624 250.922 273.731 251.962 273.524C253.002 273.317 253.957 272.806 254.707 272.056C255.457 271.307 255.967 270.351 256.174 269.311C256.381 268.272 256.275 267.194 255.869 266.214C255.463 265.234 254.776 264.397 253.894 263.808C253.013 263.219 251.976 262.904 250.916 262.904C249.494 262.904 248.13 263.469 247.125 264.475C246.12 265.48 245.555 266.844 245.555 268.266Z" fill="#8C8C8C"/>
<path d="M260.629 293.296C260.992 296.068 264.749 295.471 264.259 292.612C264.027 291.295 263.562 288.62 262.979 287.426C262.142 285.687 260.357 286.031 260.041 288.053C259.837 289.357 260.457 291.992 260.629 293.296Z" fill="#F4B998"/>
<path d="M257.302 294.144C257.664 296.8 261.42 296.235 260.929 293.489C260.697 292.224 260.232 289.659 259.647 288.516C258.815 286.847 257.03 287.179 256.714 289.115C256.505 290.354 257.125 292.88 257.302 294.144Z" fill="#F4B998"/>
<path d="M253.934 294.864C254.302 296.981 258.055 296.526 257.567 294.344C257.334 293.333 256.856 291.288 256.284 290.375C255.45 289.045 253.665 289.303 253.349 290.853C253.147 291.85 253.763 293.865 253.934 294.864Z" fill="#F4B998"/>
<path d="M263.987 292.227C264.352 294.344 268.11 293.891 267.62 291.702C267.387 290.693 266.911 288.648 266.337 287.737C265.502 286.405 263.718 286.668 263.402 288.216C263.197 289.213 263.808 291.227 263.987 292.227Z" fill="#F4B998"/>
<path d="M234.93 418.686L236.073 435.118C236.073 435.118 235.552 438.604 235.578 439.766C235.604 440.928 236.275 444.325 236.275 444.325C237.751 445.355 242.35 445.587 244.655 444.867L245.092 444.476C245.092 444.476 245.557 444.73 248.829 445.422C252.177 446.119 262.054 446.103 263.492 444.867C263.492 444.867 264.617 439.917 260.504 438.994C250.202 436.685 248.636 433.982 247.836 430.861C246.83 426.924 245.552 417.043 245.552 417.043L234.93 418.686Z" fill="#207089"/>
<mask id="mask0_221_194" style="mask-type:luminance" maskUnits="userSpaceOnUse" x="234" y="417" width="30" height="29">
<path d="M234.93 418.686L236.073 435.118C236.073 435.118 235.552 438.604 235.578 439.766C235.604 440.928 236.275 444.325 236.275 444.325C237.751 445.355 242.35 445.587 244.655 444.867L245.092 444.476C245.092 444.476 245.557 444.73 248.829 445.422C252.177 446.119 262.054 446.103 263.492 444.867C263.492 444.867 264.617 439.917 260.504 438.994C250.202 436.685 248.636 433.982 247.836 430.861C246.83 426.924 245.552 417.043 245.552 417.043L234.93 418.686Z" fill="white"/>
</mask>
<g mask="url(#mask0_221_194)">
<path d="M250.53 434.688C250.53 434.688 247.79 434.442 246.296 435.999C244.885 437.468 243.781 438.713 241.58 438.323C235.938 437.347 236.133 432.978 233.779 435.002L234.012 446.389L265.103 447.123L265.017 438.492L250.53 434.688Z" fill="#0B2633"/>
<path d="M264.183 443.637C264.183 443.637 263.802 445.125 254.027 444.853C244.253 444.581 243.338 442.383 235.727 442.719L236.166 445.378L264.798 447.351L264.183 443.637Z" fill="#207089"/>
</g>
<path d="M207.971 259.186C211.773 242.987 234.593 241.334 236.84 257.773C240.061 281.358 249.28 433.794 249.28 433.794C244.851 437.389 238.474 435.525 234.468 434.238C234.468 434.238 198.027 301.545 207.971 259.186Z" fill="#19323A"/>
<path d="M194.66 419.067V435.541C194.66 435.541 195.417 438.976 195.473 440.147C195.529 441.318 195.092 444.741 195.092 444.741C193.698 445.871 189.12 446.422 186.775 445.861L186.31 445.504C186.31 445.504 185.876 445.787 182.65 446.7C179.357 447.63 169.497 448.292 167.982 447.165C167.982 447.165 166.516 442.301 170.557 441.102C180.675 438.081 182.051 435.293 182.641 432.107C183.373 428.105 183.965 418.163 183.965 418.163L194.66 419.067Z" fill="#207089"/>
<mask id="mask1_221_194" style="mask-type:luminance" maskUnits="userSpaceOnUse" x="167" y="418" width="29" height="30">
<path d="M194.66 419.067V435.541C194.66 435.541 195.417 438.976 195.473 440.147C195.529 441.318 195.092 444.741 195.092 444.741C193.698 445.871 189.12 446.422 186.775 445.861L186.31 445.504C186.31 445.504 185.876 445.787 182.65 446.7C179.357 447.63 169.497 448.292 167.982 447.165C167.982 447.165 166.516 442.301 170.557 441.102C180.675 438.081 182.051 435.293 182.641 432.107C183.373 428.105 183.965 418.163 183.965 418.163L194.66 419.067Z" fill="white"/>
</mask>
<g mask="url(#mask1_221_194)">
<path d="M180.203 436.108C180.203 436.108 182.922 435.674 184.518 437.124C186.029 438.492 187.216 439.657 189.399 439.122C194.957 437.76 194.46 433.417 196.949 435.274L197.499 446.644L166.52 449.517L166.011 440.902L180.203 436.108Z" fill="#0B2633"/>
<path d="M167.203 445.978C167.203 445.978 167.687 447.435 177.428 446.489C187.17 445.543 187.911 443.287 195.536 443.098L195.283 445.78L166.853 449.731L167.203 445.978Z" fill="#207089"/>
</g>
<path d="M179.18 253.892C186.937 239.194 210.111 243.793 210.68 260.399C212.47 313.051 195.443 434.942 195.443 434.942C190.686 437.621 184.832 436.666 181.377 434.44C181.377 434.451 164.622 281.486 179.18 253.892Z" fill="#1C3742"/>
<g style="mix-blend-mode:multiply">
<path d="M233.234 265.233C233.02 273.908 216.648 283.891 202.507 283.543C188.367 283.194 177.691 275.899 177.903 267.224C178.6 239.234 190.186 224.261 204.327 224.605C218.468 224.949 233.931 236.708 233.234 265.233Z" fill="#1C3742"/>
</g>
<path d="M237.268 261.329C237.142 266.406 222.046 268.621 205.582 268.219C189.117 267.817 176.794 265.124 176.919 260.041C177.321 243.647 191.622 234.446 208.087 234.846C224.551 235.246 237.674 244.618 237.268 261.329Z" fill="#0B2633"/>
<path d="M166.318 172.123C172.555 161.682 205.233 152.205 206.753 152.161C217.152 151.861 240.593 166.59 242.97 171.937C245.041 176.585 235.962 215.567 236.847 233.261C237.312 242.48 238.492 249.375 238.267 258.663C238.053 267.341 176.283 267.464 176.494 258.791C176.671 251.599 177.995 246.173 177.912 238.671C177.731 223.664 163.65 176.608 166.318 172.123Z" fill="#C2D6FF"/>
<path opacity="0.3" d="M176.483 258.791C176.659 251.599 177.984 246.173 177.9 238.671C177.731 223.664 163.641 176.608 166.318 172.123C168.995 167.638 178.855 170.743 180.166 175.992C191.321 202.019 191.235 225.16 182.132 262.753C178.602 261.745 176.443 260.423 176.483 258.791Z" fill="#549E7B"/>
<path d="M210.539 181.012C210.532 181.297 210.44 181.574 210.276 181.807C210.111 182.04 209.881 182.219 209.614 182.321C209.348 182.424 209.057 182.444 208.779 182.381C208.5 182.318 208.247 182.173 208.051 181.966C207.855 181.758 207.725 181.497 207.678 181.216C207.63 180.934 207.667 180.645 207.785 180.385C207.902 180.125 208.094 179.905 208.336 179.754C208.578 179.603 208.859 179.527 209.145 179.536C209.524 179.549 209.884 179.711 210.145 179.987C210.406 180.264 210.548 180.632 210.539 181.012Z" fill="white"/>
<path d="M212.47 196.391C212.463 196.676 212.372 196.953 212.209 197.187C212.045 197.42 211.815 197.6 211.55 197.703C211.284 197.807 210.993 197.829 210.715 197.767C210.436 197.705 210.182 197.562 209.985 197.356C209.787 197.15 209.656 196.89 209.606 196.609C209.556 196.328 209.591 196.039 209.706 195.778C209.821 195.516 210.01 195.295 210.251 195.142C210.491 194.988 210.772 194.909 211.057 194.915C211.44 194.924 211.804 195.084 212.069 195.361C212.334 195.637 212.478 196.008 212.47 196.391Z" fill="white"/>
<path d="M213.588 211.366C213.58 211.651 213.489 211.927 213.324 212.159C213.16 212.392 212.93 212.571 212.665 212.673C212.399 212.775 212.109 212.797 211.831 212.734C211.553 212.671 211.3 212.528 211.103 212.321C210.907 212.115 210.776 211.855 210.728 211.574C210.679 211.294 210.715 211.005 210.83 210.745C210.945 210.484 211.135 210.264 211.376 210.111C211.617 209.959 211.897 209.881 212.182 209.888C212.371 209.892 212.558 209.934 212.731 210.01C212.905 210.087 213.061 210.197 213.192 210.335C213.323 210.472 213.425 210.634 213.493 210.811C213.561 210.988 213.593 211.176 213.588 211.366Z" fill="white"/>
<path d="M214.696 225.195C214.69 225.481 214.599 225.758 214.435 225.991C214.271 226.225 214.041 226.405 213.775 226.508C213.509 226.611 213.218 226.633 212.939 226.571C212.661 226.508 212.407 226.365 212.21 226.158C212.013 225.952 211.881 225.692 211.832 225.41C211.783 225.129 211.818 224.84 211.934 224.579C212.049 224.317 212.24 224.096 212.481 223.944C212.722 223.791 213.003 223.713 213.288 223.719C213.67 223.73 214.032 223.892 214.296 224.168C214.559 224.444 214.703 224.813 214.696 225.195Z" fill="white"/>
<path d="M214.671 238.836C214.664 239.122 214.572 239.4 214.408 239.634C214.243 239.868 214.013 240.047 213.746 240.15C213.479 240.252 213.187 240.273 212.908 240.21C212.629 240.147 212.375 240.002 212.179 239.794C211.982 239.586 211.852 239.324 211.805 239.042C211.757 238.76 211.795 238.47 211.912 238.21C212.03 237.949 212.222 237.729 212.465 237.578C212.708 237.426 212.99 237.351 213.276 237.36C213.656 237.373 214.016 237.535 214.277 237.811C214.539 238.087 214.68 238.456 214.671 238.836Z" fill="white"/>
<path d="M215.061 252.484C215.054 252.77 214.962 253.046 214.798 253.279C214.633 253.513 214.403 253.692 214.136 253.794C213.87 253.896 213.579 253.917 213.301 253.853C213.022 253.79 212.769 253.646 212.573 253.438C212.377 253.231 212.247 252.97 212.2 252.688C212.152 252.407 212.189 252.118 212.307 251.857C212.424 251.597 212.615 251.377 212.858 251.226C213.1 251.075 213.381 250.999 213.667 251.009C214.046 251.021 214.406 251.183 214.667 251.46C214.928 251.736 215.07 252.104 215.061 252.484Z" fill="white"/>
<path d="M224.429 211.882H197.923C197.823 211.882 197.727 211.842 197.657 211.772C197.586 211.701 197.546 211.605 197.546 211.505V194.85C197.546 194.75 197.586 194.653 197.657 194.582C197.728 194.511 197.825 194.471 197.925 194.471H224.429C224.529 194.471 224.624 194.511 224.695 194.582C224.766 194.652 224.805 194.748 224.805 194.848V211.503C224.805 211.603 224.766 211.699 224.695 211.77C224.625 211.841 224.529 211.881 224.429 211.882Z" fill="white"/>
<path d="M222.846 208.951H215.41C215.329 208.951 215.251 208.919 215.194 208.862C215.137 208.805 215.105 208.728 215.105 208.647V199.036C215.105 198.955 215.137 198.877 215.194 198.82C215.251 198.763 215.329 198.731 215.41 198.731H222.846C222.926 198.731 223.003 198.763 223.059 198.82C223.116 198.876 223.148 198.953 223.148 199.033V208.649C223.148 208.689 223.14 208.728 223.125 208.765C223.11 208.802 223.087 208.835 223.059 208.863C223.031 208.891 222.998 208.913 222.961 208.928C222.925 208.944 222.886 208.951 222.846 208.951Z" fill="#E2E2E2"/>
<path d="M207.683 196.221H214.673V195.152H207.683V196.221Z" fill="#3E2344"/>
<path d="M209.6 195.687H212.986C213.073 195.687 213.144 195.616 213.144 195.529V191.26C213.144 191.173 213.073 191.102 212.986 191.102H209.6C209.512 191.102 209.442 191.173 209.442 191.26V195.529C209.442 195.616 209.512 195.687 209.6 195.687Z" fill="#7C4284"/>
<path d="M199.702 199.905H212.142V198.733H199.702V199.905Z" fill="#A1ABAD"/>
<path d="M199.702 202.363H212.142V201.192H199.702V202.363Z" fill="#A1ABAD"/>
<path d="M199.702 204.824H212.142V203.651H199.702V204.824Z" fill="#A1ABAD"/>
<path d="M199.702 208.949H212.142V207.778H199.702V208.949Z" fill="#A1ABAD"/>
<path d="M209.623 192.175H212.876C213.05 192.175 213.219 192.124 213.364 192.028C213.508 191.931 213.621 191.794 213.687 191.634C217.826 181.73 223.887 160.494 220.738 156.144C220.582 155.926 219.966 155.426 220.073 155.679C221.932 159.927 217.477 180.08 212.799 191.274L209.618 191.223L209.418 190.948C204.101 184.841 191.466 168.746 190.702 156.802C190.683 156.532 189.861 157.362 189.879 157.627C190.662 169.871 203.313 185.399 208.702 191.583L208.965 191.885C209.048 191.977 209.149 192.051 209.263 192.101C209.376 192.151 209.499 192.176 209.623 192.175Z" fill="#764582"/>
<path d="M194.539 148.624C195.717 145.961 216.585 146.825 217.424 149.435L216.402 160.553L194.43 159.205L194.539 148.624Z" fill="#3C8460"/>
<path d="M195.998 128.709C195.998 128.709 197.983 136.573 196.407 142.28C194.832 147.987 192.808 160.025 192.808 160.025L202.689 161.317L209.098 171.326L211.466 160.057L219.135 157.676C219.135 157.676 212.839 150.302 213.52 142.475C214.11 135.657 213.799 134.414 213.799 134.414L195.998 128.709Z" fill="#FC4F5A"/>
<path d="M194.539 148.624C194.539 148.624 193.889 150.795 197.96 154.785C199.236 156.035 203.649 159.163 203.649 159.163L209.675 172.123L208.152 172.288L202.429 160.204L195.657 169.293C192.404 165.216 190.312 161.391 190.152 157.959L194.539 148.624Z" fill="#C2D6FF"/>
<path d="M195.654 169.302L202.428 160.213L208.152 172.288L200.95 165.825L195.654 169.302Z" fill="#829FD1"/>
<path d="M217.424 149.435C217.373 152.435 215.358 157.378 211.633 159.36L208.147 172.288L209.67 172.123L212.553 160.457L216.606 169.585C218.97 166.018 220.773 162.277 221.101 158.066L217.424 149.435Z" fill="#C2D6FF"/>
<path d="M216.606 169.583L212.558 160.457L209.672 172.123L212.398 165.839L216.606 169.583Z" fill="#829FD1"/>
<path d="M224.463 125.153L215.818 121.033L215.625 121.437L224.324 125.581C224.365 125.432 224.417 125.293 224.463 125.153Z" fill="#581550"/>
<path d="M194.325 110.724C194.325 110.724 182.429 111.052 185.527 121.967C188.625 132.882 196.279 117.649 196.279 117.649L199.702 107.954L194.325 110.724Z" fill="#581550"/>
<path d="M213.481 140.632L213.525 142.466C207.813 142.54 205.995 142.738 200.302 142.436L195.998 128.709C195.998 128.709 190.128 127.523 190.142 121.588C190.142 116.618 194.79 117.215 195.612 121.939L201.529 111.452C201.529 111.452 203.307 107.664 204.318 107.722C205.329 107.78 210.869 110.239 211.02 110.332C211.171 110.425 218.028 113.411 218.028 113.411L219.467 118.216C219.467 118.216 223.794 137.683 213.481 140.632Z" fill="#FC4F5A"/>
<path d="M194.348 120.552C192.708 120.301 191.12 121.739 191.306 123.417C191.337 123.682 191.753 123.685 191.725 123.417C191.571 122.037 192.838 120.74 194.239 120.954C194.502 120.993 194.613 120.591 194.348 120.552Z" fill="#1C232B"/>
<path d="M192.073 121.767C192.411 121.911 192.714 122.126 192.96 122.398C193.206 122.67 193.391 122.993 193.5 123.343C193.581 123.601 193.983 123.492 193.902 123.234C193.779 122.83 193.57 122.457 193.289 122.142C193.008 121.827 192.662 121.576 192.275 121.407C192.043 121.3 191.811 121.66 192.066 121.767H192.073Z" fill="#1C232B"/>
<path d="M195.603 121.946L201.529 111.452C201.529 111.452 203.307 107.664 204.317 107.722C205.328 107.78 210.868 110.239 211.019 110.332C211.171 110.425 218.028 113.411 218.028 113.411L219.467 118.216C219.467 118.216 219.699 119.274 219.931 120.933C214.649 119.45 212.472 113.729 212.472 113.729C210.476 119.248 203.369 115.254 203.369 115.254C204.152 122.102 195.603 121.946 195.603 121.946Z" fill="#C92736"/>
<path d="M212.479 113.348C212.479 113.348 215.468 121.203 222.936 120.889C230.405 120.575 230.982 113.002 225.614 110.583C225.614 110.583 229.845 104.076 224.684 100.955C219.523 97.8339 215.737 101.917 215.737 101.917C215.737 101.917 212.175 93.0514 206.105 95.0081C200.035 96.9648 200.602 103.081 200.602 103.081C200.602 103.081 193.212 99.8092 191.172 103.999C189.131 108.189 192.008 110.843 192.008 110.843L190.484 119.441C190.484 119.441 192.438 115.149 195.596 121.918C195.596 121.918 204.146 121.7 203.37 114.863C203.388 114.884 210.483 118.876 212.479 113.348Z" fill="#581550"/>
<path d="M215.309 130.08L213.801 125.344L214.164 125.228L215.67 129.966L215.309 130.08Z" fill="#160539"/>
<path d="M207.767 125.862L207.244 124.853L210.56 123.131L211.085 124.142L207.767 125.862Z" fill="#160539"/>
<path d="M220.185 123.071L216.906 122.588L217.071 121.461L220.355 121.944L220.185 123.071Z" fill="#160539"/>
<path d="M210.76 126.452C210.774 126.569 210.755 126.688 210.704 126.795C210.654 126.902 210.574 126.992 210.474 127.054C210.374 127.117 210.258 127.15 210.14 127.149C210.022 127.149 209.907 127.114 209.807 127.05C209.708 126.986 209.629 126.895 209.58 126.788C209.531 126.681 209.513 126.562 209.529 126.445C209.545 126.328 209.594 126.218 209.671 126.128C209.747 126.038 209.847 125.971 209.96 125.936C210.135 125.9 210.316 125.933 210.466 126.03C210.616 126.127 210.721 126.278 210.76 126.452Z" fill="#160539"/>
<path d="M218.865 123.973C218.879 124.09 218.859 124.208 218.808 124.314C218.757 124.421 218.676 124.51 218.576 124.572C218.476 124.634 218.36 124.667 218.242 124.665C218.124 124.664 218.009 124.629 217.91 124.565C217.812 124.501 217.733 124.409 217.684 124.302C217.635 124.195 217.618 124.076 217.634 123.959C217.651 123.842 217.7 123.733 217.776 123.643C217.853 123.553 217.953 123.487 218.066 123.452C218.241 123.416 218.423 123.451 218.572 123.548C218.722 123.646 218.827 123.798 218.865 123.973Z" fill="#160539"/>
<path d="M217.229 132.236C217.41 132.824 217.21 133.398 216.787 133.538C216.365 133.677 215.872 133.305 215.693 132.706C215.514 132.106 215.711 131.544 216.137 131.404C216.562 131.265 217.05 131.648 217.229 132.236Z" fill="#160539"/>
<path d="M213.469 129.801C213.727 130.633 212.856 131.641 211.529 132.046C210.202 132.45 208.919 132.106 208.663 131.267C208.408 130.428 209.277 129.427 210.606 129.022C211.935 128.618 213.216 128.964 213.469 129.801Z" fill="#C92736"/>
<path d="M218.87 126.492C217.545 126.898 216.676 127.907 216.932 128.741C217.187 129.575 218.47 129.924 219.797 129.517C219.965 129.466 220.13 129.403 220.29 129.329C220.362 128.325 220.383 127.319 220.369 126.35C219.865 126.292 219.354 126.34 218.87 126.492Z" fill="#C92736"/>
<path d="M209.93 131.072C208.657 131.392 207.309 131.198 206.178 130.531C205.047 129.865 204.224 128.78 203.887 127.512C203.55 126.243 203.725 124.893 204.376 123.753C205.027 122.613 206.1 121.775 207.364 121.42C208.627 121.066 209.98 121.223 211.129 121.858C212.277 122.493 213.13 123.554 213.502 124.813C213.874 126.072 213.736 127.426 213.117 128.584C212.498 129.741 211.448 130.608 210.195 130.998C210.107 131.026 210.018 131.049 209.93 131.072ZM207.664 121.849C207.58 121.867 207.499 121.893 207.418 121.916C206.27 122.265 205.305 123.052 204.732 124.106C204.16 125.161 204.025 126.399 204.358 127.552C204.691 128.705 205.464 129.68 206.511 130.267C207.557 130.855 208.793 131.006 209.951 130.69C211.108 130.373 212.094 129.613 212.696 128.575C213.298 127.537 213.467 126.304 213.166 125.142C212.866 123.98 212.12 122.983 211.091 122.367C210.061 121.751 208.83 121.565 207.664 121.849Z" fill="#581550"/>
<path d="M221.024 129.127C219.762 129.44 218.426 129.244 217.307 128.581C216.188 127.918 215.376 126.841 215.044 125.583C214.713 124.325 214.891 122.987 215.538 121.859C216.186 120.731 217.251 119.903 218.504 119.554C219.757 119.206 221.097 119.364 222.235 119.996C223.372 120.627 224.215 121.681 224.581 122.929C224.947 124.178 224.807 125.52 224.192 126.666C223.576 127.811 222.534 128.669 221.291 129.053L221.024 129.127ZM218.761 119.904C218.675 119.922 218.596 119.945 218.514 119.971C217.359 120.326 216.392 121.125 215.825 122.192C215.259 123.26 215.139 124.509 215.493 125.664C215.754 126.516 216.258 127.273 216.944 127.842C217.63 128.411 218.467 128.766 219.352 128.864C220.238 128.961 221.133 128.798 221.926 128.393C222.72 127.988 223.377 127.359 223.817 126.585C224.258 125.81 224.461 124.924 224.403 124.035C224.345 123.146 224.028 122.293 223.491 121.583C222.954 120.872 222.22 120.334 221.381 120.036C220.541 119.737 219.633 119.691 218.768 119.904H218.761Z" fill="#581550"/>
<path d="M213.465 125.644L213.353 125.281L215.015 124.77L215.126 125.135L213.465 125.644Z" fill="#581550"/>
<path d="M204.144 125.432L195.499 121.314L195.306 121.719L204.004 125.86C204.049 125.718 204.086 125.574 204.144 125.432Z" fill="#581550"/>
<path d="M225.465 112.374C226.882 114.106 228.865 117.682 225.846 118.925C225.811 118.939 225.825 118.995 225.86 118.981C226.789 118.595 227.459 117.875 227.505 116.834C227.552 115.793 227.068 114.707 226.538 113.813C226.233 113.296 225.888 112.803 225.507 112.339C225.483 112.309 225.442 112.351 225.465 112.379V112.374Z" fill="white"/>
<path d="M224.812 119.183C224.759 119.256 224.689 119.315 224.608 119.356C224.526 119.394 224.437 119.413 224.347 119.411C224.31 119.411 224.31 119.472 224.347 119.47C224.447 119.471 224.547 119.45 224.638 119.407C224.729 119.361 224.809 119.295 224.871 119.214C224.891 119.183 224.843 119.153 224.819 119.183H224.812Z" fill="white"/>
<path d="M221.579 119.576C221.235 119.611 220.933 119.455 220.608 119.374C220.601 119.372 220.593 119.373 220.586 119.377C220.58 119.381 220.575 119.387 220.573 119.395C220.571 119.402 220.572 119.41 220.576 119.416C220.58 119.423 220.587 119.428 220.594 119.43C220.922 119.513 221.228 119.662 221.579 119.634C221.614 119.634 221.617 119.571 221.579 119.576Z" fill="white"/>
<path d="M213.664 113.813C213.674 113.407 213.576 113.006 213.38 112.651C213.178 112.238 212.906 111.863 212.576 111.542C212.184 111.164 211.231 110.559 210.854 111.268C210.701 111.635 210.639 112.034 210.673 112.43C210.675 112.436 210.679 112.442 210.684 112.446C210.689 112.45 210.696 112.452 210.702 112.452C210.709 112.452 210.715 112.45 210.72 112.446C210.726 112.442 210.729 112.436 210.731 112.43C210.731 111.917 210.731 110.887 211.512 111.017C212.293 111.147 212.906 111.898 213.264 112.558C213.495 112.935 213.616 113.37 213.613 113.813C213.613 113.852 213.666 113.85 213.671 113.813H213.664Z" fill="white"/>
<path d="M201.741 113.638C201.901 114.468 202.045 115.34 201.908 116.195C201.779 116.943 201.403 117.627 200.841 118.137C199.333 119.56 197.123 120.175 195.087 120.185C195.081 120.187 195.075 120.19 195.072 120.196C195.068 120.201 195.065 120.207 195.065 120.214C195.065 120.22 195.068 120.227 195.072 120.232C195.075 120.237 195.081 120.241 195.087 120.243C196.788 120.249 198.457 119.787 199.912 118.907C201.018 118.235 201.875 117.264 202.003 115.937C202.044 115.163 201.976 114.388 201.801 113.634C201.801 113.597 201.738 113.613 201.745 113.65L201.741 113.638Z" fill="white"/>
<path d="M214.078 101.852C214.252 100.764 213.565 99.6698 212.888 98.8797C212.041 97.9274 210.95 97.225 209.733 96.8486C208.509 96.4311 207.191 96.3763 205.938 96.6906C204.776 97.0067 203.89 97.9269 203.381 99.0145C203.094 99.6448 202.922 100.322 202.875 101.013C202.807 101.733 202.754 102.5 202.984 103.2C202.984 103.235 203.051 103.218 203.04 103.183C202.872 102.566 202.828 101.922 202.91 101.287C202.937 100.689 203.045 100.097 203.23 99.5281C203.628 98.4126 204.464 97.2948 205.603 96.8696C207.853 96.0283 210.792 96.851 212.468 98.5102C213.295 99.3305 214.222 100.602 214.025 101.84C214.025 101.877 214.076 101.891 214.08 101.854L214.078 101.852Z" fill="white"/>
<path d="M202.775 103.82C202.563 104.19 202.496 104.805 202.006 104.919C201.998 104.921 201.992 104.926 201.988 104.932C201.984 104.939 201.983 104.947 201.985 104.954C201.987 104.962 201.991 104.968 201.998 104.972C202.004 104.976 202.012 104.977 202.02 104.975C202.533 104.857 202.603 104.236 202.826 103.848C202.845 103.816 202.793 103.788 202.775 103.82Z" fill="white"/>
<path d="M191.834 104.548C191.353 105.584 190.879 106.781 191.295 107.922C191.531 108.474 191.844 108.989 192.224 109.453C192.608 109.974 193.024 110.469 193.414 110.985C193.438 111.013 193.489 110.985 193.465 110.954C192.785 110.057 191.987 109.207 191.485 108.189C190.893 106.99 191.369 105.705 191.892 104.578C191.908 104.543 191.857 104.513 191.843 104.548H191.834Z" fill="white"/>
<path d="M224.654 110.432C224.567 110.326 224.503 110.203 224.467 110.07C224.431 109.938 224.422 109.8 224.442 109.665C224.453 109.38 224.566 109.108 224.761 108.9C224.789 108.875 224.747 108.833 224.721 108.858C224.515 109.077 224.395 109.364 224.384 109.665C224.364 109.808 224.375 109.954 224.415 110.094C224.455 110.233 224.524 110.362 224.617 110.473C224.622 110.477 224.629 110.479 224.636 110.478C224.643 110.477 224.65 110.474 224.655 110.47C224.659 110.465 224.663 110.458 224.663 110.451C224.664 110.444 224.662 110.437 224.658 110.432H224.654Z" fill="white"/>
<path d="M225.525 107.539C225.616 107.371 225.694 107.196 225.758 107.016C225.758 106.981 225.714 106.967 225.702 107.002C225.642 107.176 225.571 107.346 225.488 107.511C225.469 107.544 225.521 107.574 225.537 107.539H225.525Z" fill="white"/>
<path d="M202.431 106.014C202.159 104.459 200.476 103.051 199.449 101.917C198.287 100.625 196.935 99.1562 195.401 98.2987C195.357 98.2731 195.401 98.2034 195.443 98.2267C197.16 99.1887 198.578 100.836 199.884 102.277C200.825 103.316 202.257 104.543 202.508 105.995C202.508 106.049 202.438 106.07 202.431 106.019V106.014Z" fill="#581550"/>
<path d="M203.295 106.195C202.714 104.78 201.336 103.871 200.188 102.942C198.715 101.745 197.07 100.767 195.178 100.451C195.127 100.439 195.15 100.362 195.201 100.369C196.914 100.662 198.455 101.478 199.812 102.542C201.116 103.562 202.726 104.603 203.377 106.184C203.395 106.232 203.316 106.251 203.295 106.204V106.195Z" fill="#581550"/>
<path d="M213.676 140.572C213.676 140.572 209.419 141.111 205.975 138.892C205.975 138.892 206.937 145.354 214.255 148.624C213.559 146 213.363 143.269 213.676 140.572Z" fill="#160539"/>
<path d="M165.974 172.567C174.293 161.103 191.26 175.611 184.634 189.617C177.946 203.76 167.928 216.444 165.974 229.459C164.612 238.541 186.136 273.752 186.136 273.752C186.291 275.416 176.533 285.302 174.798 285.334C174.798 285.334 137.806 246.035 141.68 224.41C144.838 206.827 154.945 189.071 165.974 172.567Z" fill="white"/>
<path d="M164.761 229.459C161.887 226.924 151.436 222.609 150.555 223.72C149.858 224.6 160.12 228.216 160.12 228.216C160.12 228.216 146.942 224.089 146.203 226.878C145.798 228.411 154.32 227.301 163.773 230.338C163.773 230.338 166.458 230.956 164.761 229.459Z" fill="#FBE9DC"/>
<path d="M188.76 269.532C188.76 269.532 184.593 278.618 173.669 286.031C173.669 286.031 173.492 287.1 174.48 287.405C175.467 287.709 177.756 285.778 182.09 281.528C184.988 278.676 189.847 271.512 189.975 270.524C190.103 269.537 188.76 269.532 188.76 269.532Z" fill="#2B545E"/>
<g style="mix-blend-mode:multiply" opacity="0.3">
<path d="M202.066 272.906C204.989 272.888 207.903 272.799 210.787 272.527C210.148 329.664 195.45 434.965 195.45 434.965C190.693 437.644 184.839 436.689 181.384 434.463C181.384 434.463 180.956 430.564 180.298 423.903C208.226 393.605 203.065 289.331 202.066 272.906Z" fill="#1C3742"/>
</g>
<path d="M190.142 157.164C190.142 157.164 211.545 247.702 203.388 327.986C203.388 327.986 190.7 335.72 163.78 327.986C163.78 327.986 181.367 254.132 173.243 216.548C165.119 178.964 157.748 168.656 188.759 158.059" fill="white"/>
<path d="M220.601 155.984C220.601 155.984 233.979 256.042 225.713 327.986C225.713 327.986 235.782 334.054 258.814 324.143C258.814 324.143 238.511 255.187 239.705 224.6C240.899 194.014 262.658 171.456 220.601 155.984Z" fill="white"/>
<path d="M244.694 196.356C244.694 196.356 235.896 214.429 240.923 244.295" stroke="#212237" stroke-width="0.232386" stroke-miterlimit="10"/>
<path d="M191.441 273.627C191.441 273.627 187.275 282.713 176.353 290.126C176.353 290.126 176.174 291.193 177.161 291.499C178.149 291.806 180.44 289.873 184.774 285.622C187.672 282.771 192.529 275.607 192.657 274.619C192.784 273.631 191.441 273.627 191.441 273.627Z" fill="#2B545E"/>
<path d="M189.506 276.947C189.506 276.947 178.544 262.477 175.532 254.071" stroke="#212237" stroke-width="0.232386" stroke-miterlimit="10"/>
<path d="M177.37 288.45L172.116 282.36" stroke="#212237" stroke-width="0.232386" stroke-miterlimit="10"/>
<path d="M190.142 157.52C190.407 158.568 190.665 159.597 190.918 160.622C192.921 169.813 198.354 196.479 201.933 230.119C201.933 230.817 201.912 231.156 201.912 231.156L187.318 191.1L190.142 186.838L184.502 180.972L190.142 157.52Z" fill="#E2E2E2"/>
<path d="M231.355 180.972L228.729 185.29L231.355 187.76L226.724 222.258C224.428 184.611 220.601 155.979 220.601 155.979L231.355 180.972Z" fill="#E2E2E2"/>
<path d="M209.646 267.403C209.646 268.282 209.995 269.125 210.617 269.747C211.238 270.368 212.081 270.717 212.96 270.717H217.958C218.837 270.717 219.68 270.368 220.302 269.747C220.923 269.125 221.272 268.282 221.272 267.403C221.273 266.968 221.187 266.537 221.021 266.135C220.854 265.733 220.61 265.367 220.302 265.06C219.995 264.752 219.629 264.508 219.227 264.341C218.825 264.175 218.394 264.089 217.958 264.09H212.96C212.525 264.089 212.093 264.175 211.691 264.341C211.289 264.508 210.924 264.752 210.616 265.06C210.308 265.367 210.064 265.733 209.898 266.135C209.731 266.537 209.646 266.968 209.646 267.403Z" fill="white"/>
<g style="mix-blend-mode:multiply">
<path d="M221.282 161.364C221.282 161.364 229.125 289.626 225.727 327.984C225.718 327.986 234.295 259.258 221.282 161.364Z" fill="#C4C5C6"/>
</g>
<g style="mix-blend-mode:multiply">
<path d="M190.588 158.117C190.588 158.117 211.306 251.641 203.37 327.991C203.388 327.986 218.075 276.947 190.588 158.117Z" fill="#9E9E9E"/>
</g>
<path d="M345.22 103.994C345.22 103.994 356.107 102.616 360.727 113.855C365.347 125.093 364.376 129.111 371.203 132.741C378.031 136.37 396.194 138.334 397.86 159.697C399.526 181.061 335.221 183.303 325.946 167.959C316.672 152.614 320.483 139.454 325.714 130.777C330.945 122.1 333.203 122.476 334.042 117.424C334.881 112.372 337.033 105.226 345.22 103.994Z" fill="#0B1C30"/>
<path d="M343.136 137.781L343.549 134.458C343.549 134.458 335.183 135.766 335.518 128.555C336.12 116.007 335.56 112.56 340.907 109C346.254 105.44 359.142 111.666 357.795 122.132L356.168 143.047C356.168 143.047 351.924 157.845 348.011 158.031C343.91 158.231 343.136 137.781 343.136 137.781Z" fill="#FC4F5A"/>
<path d="M343.026 134.518C343.026 134.518 346.914 134.13 349.659 131.465L342.871 137.718L343.026 134.518Z" fill="#0B1C30"/>
<g style="mix-blend-mode:soft-light">
<path d="M354.283 123.961C354.141 122.805 353.549 121.751 352.636 121.028C351.722 120.306 350.561 119.972 349.403 120.099C348.832 120.154 348.277 120.322 347.772 120.593C347.266 120.863 346.819 121.232 346.457 121.677C346.095 122.122 345.824 122.634 345.661 123.184C345.498 123.734 345.446 124.311 345.508 124.881C345.65 126.037 346.242 127.091 347.156 127.813C348.069 128.536 349.231 128.869 350.388 128.741C350.959 128.686 351.513 128.518 352.019 128.248C352.524 127.977 352.971 127.609 353.333 127.164C353.695 126.719 353.966 126.207 354.129 125.658C354.292 125.108 354.344 124.531 354.283 123.961Z" fill="#0B1C30"/>
</g>
<g style="mix-blend-mode:soft-light">
<path d="M337.612 124.64C337.54 124.039 337.343 123.46 337.035 122.94C336.726 122.42 336.313 121.97 335.82 121.619C335.725 123.575 335.651 125.846 335.518 128.558C335.518 128.648 335.53 128.723 335.518 128.809C336.232 128.39 336.81 127.774 337.182 127.034C337.553 126.294 337.703 125.463 337.612 124.64Z" fill="#0B1C30"/>
</g>
<path d="M361.796 123.464C361.671 122.451 361.153 121.528 360.352 120.895C359.552 120.261 358.535 119.969 357.52 120.08C357.021 120.129 356.536 120.276 356.093 120.512C355.65 120.749 355.259 121.072 354.942 121.46C354.624 121.849 354.387 122.297 354.244 122.778C354.1 123.259 354.054 123.764 354.106 124.263C354.231 125.276 354.749 126.199 355.55 126.832C356.35 127.465 357.368 127.757 358.382 127.644C358.882 127.597 359.367 127.451 359.81 127.214C360.253 126.978 360.645 126.656 360.962 126.267C361.28 125.878 361.517 125.43 361.66 124.949C361.803 124.468 361.849 123.963 361.796 123.464Z" fill="#FC4F5A"/>
<path d="M358.647 122.16C358.164 122.141 357.687 122.274 357.282 122.539C356.878 122.804 356.566 123.189 356.391 123.64C356.293 123.892 356.247 124.161 356.258 124.43C356.258 124.496 356.363 124.496 356.361 124.43C356.362 123.969 356.509 123.52 356.781 123.148C357.053 122.775 357.437 122.499 357.876 122.358C358.124 122.276 358.386 122.244 358.647 122.262C358.712 122.262 358.712 122.167 358.647 122.16Z" fill="#0B1C30"/>
<path d="M338.158 122.927C337.991 122.923 337.824 122.909 337.658 122.885C336.725 122.748 335.878 122.262 335.29 121.524C334.702 120.787 334.416 119.853 334.49 118.913C334.565 117.972 334.994 117.095 335.691 116.459C336.388 115.823 337.3 115.476 338.244 115.488C338.412 115.492 338.579 115.506 338.746 115.53C339.679 115.667 340.526 116.153 341.115 116.891C341.703 117.629 341.989 118.563 341.914 119.504C341.839 120.444 341.409 121.322 340.712 121.957C340.014 122.593 339.101 122.94 338.158 122.927ZM338.241 115.66C337.341 115.647 336.469 115.978 335.803 116.584C335.137 117.191 334.727 118.028 334.656 118.925C334.585 119.823 334.858 120.715 335.42 121.418C335.981 122.122 336.79 122.586 337.681 122.715C337.84 122.739 338 122.752 338.16 122.753C339.058 122.762 339.926 122.43 340.589 121.824C341.251 121.218 341.659 120.384 341.731 119.488C341.802 118.593 341.531 117.705 340.973 117.001C340.415 116.298 339.61 115.833 338.722 115.7C338.563 115.679 338.402 115.67 338.241 115.672V115.66Z" fill="white"/>
<path d="M346.029 124.093C345.541 124.088 345.058 123.986 344.609 123.794C344.16 123.603 343.754 123.324 343.412 122.975C343.071 122.626 342.802 122.213 342.62 121.76C342.438 121.306 342.347 120.822 342.353 120.333C342.358 119.845 342.46 119.363 342.652 118.914C342.844 118.465 343.122 118.058 343.471 117.717C343.821 117.375 344.233 117.106 344.687 116.924C345.14 116.742 345.625 116.652 346.113 116.657C346.282 116.661 346.45 116.675 346.617 116.699C347.547 116.839 348.39 117.327 348.974 118.064C349.559 118.801 349.843 119.732 349.768 120.67C349.694 121.608 349.266 122.483 348.573 123.118C347.879 123.753 346.97 124.102 346.029 124.093ZM346.11 116.829C345.21 116.816 344.338 117.146 343.671 117.752C343.005 118.358 342.594 119.195 342.523 120.093C342.451 120.991 342.724 121.883 343.286 122.587C343.848 123.291 344.657 123.755 345.548 123.884C345.707 123.908 345.868 123.921 346.029 123.924C346.927 123.932 347.795 123.6 348.458 122.993C349.121 122.387 349.529 121.552 349.6 120.656C349.671 119.761 349.399 118.872 348.841 118.168C348.282 117.465 347.477 117 346.589 116.866C346.431 116.844 346.271 116.833 346.11 116.834V116.829Z" fill="white"/>
<path d="M342.464 119.927L341.783 119.825L341.811 119.655L342.487 119.757L342.464 119.927Z" fill="white"/>
<path d="M349.684 120.052L349.675 119.88L353.909 119.72L353.914 119.892L349.684 120.052Z" fill="white"/>
<path d="M336.069 117.798L334.958 117.617L335.009 117.447L336.118 117.631L336.069 117.798Z" fill="white"/>
<path d="M347.263 120.536C347.285 120.696 347.26 120.858 347.191 121.004C347.122 121.15 347.012 121.273 346.875 121.358C346.737 121.442 346.578 121.485 346.417 121.481C346.256 121.477 346.099 121.426 345.966 121.334C345.833 121.242 345.73 121.114 345.669 120.965C345.607 120.816 345.591 120.652 345.621 120.493C345.651 120.335 345.727 120.188 345.839 120.072C345.951 119.956 346.094 119.875 346.252 119.838C346.478 119.798 346.711 119.849 346.9 119.98C347.089 120.11 347.22 120.31 347.263 120.536Z" fill="#1C232B"/>
<path d="M339.636 120.143C339.658 120.303 339.633 120.467 339.565 120.613C339.496 120.76 339.386 120.883 339.248 120.968C339.11 121.054 338.951 121.097 338.789 121.093C338.627 121.089 338.47 121.038 338.336 120.946C338.203 120.854 338.099 120.726 338.038 120.576C337.976 120.426 337.96 120.262 337.99 120.103C338.02 119.944 338.096 119.797 338.208 119.68C338.321 119.564 338.465 119.482 338.622 119.446C338.849 119.406 339.082 119.457 339.271 119.588C339.461 119.718 339.592 119.917 339.636 120.143Z" fill="#1C232B"/>
<path d="M347.788 118.795C347.736 118.81 347.681 118.81 347.629 118.794C347.578 118.779 347.532 118.748 347.497 118.707C346.335 117.331 345.045 118.286 344.99 118.328C344.929 118.372 344.854 118.392 344.78 118.382C344.706 118.372 344.639 118.333 344.592 118.275C344.57 118.245 344.553 118.211 344.544 118.175C344.534 118.139 344.532 118.102 344.537 118.065C344.542 118.028 344.554 117.992 344.573 117.96C344.591 117.928 344.616 117.9 344.646 117.877C345.255 117.412 346.737 116.92 347.927 118.342C347.951 118.37 347.97 118.403 347.982 118.439C347.993 118.474 347.998 118.511 347.995 118.549C347.991 118.586 347.981 118.622 347.964 118.655C347.947 118.688 347.923 118.718 347.894 118.742C347.864 118.768 347.827 118.786 347.788 118.795Z" fill="#1C232B"/>
<path d="M343.203 127.988C343.214 127.933 343.24 127.883 343.278 127.841C343.316 127.8 343.365 127.771 343.419 127.756C345.171 127.352 344.911 125.769 344.902 125.699C344.895 125.663 344.896 125.625 344.904 125.588C344.912 125.552 344.927 125.517 344.949 125.487C344.971 125.456 344.998 125.43 345.03 125.411C345.062 125.391 345.097 125.378 345.134 125.372C345.208 125.36 345.284 125.377 345.346 125.421C345.407 125.464 345.449 125.53 345.462 125.604C345.597 126.355 345.367 127.886 343.552 128.311C343.516 128.32 343.478 128.321 343.442 128.315C343.405 128.309 343.37 128.296 343.339 128.276C343.307 128.257 343.28 128.231 343.259 128.201C343.238 128.17 343.223 128.136 343.215 128.1C343.204 128.064 343.2 128.026 343.203 127.988Z" fill="#1C232B"/>
<path d="M339.624 117.531C339.597 117.565 339.561 117.591 339.52 117.605C339.479 117.619 339.434 117.622 339.392 117.612C339.204 117.55 339.005 117.526 338.807 117.542C338.61 117.557 338.417 117.612 338.241 117.703C338.065 117.793 337.908 117.918 337.781 118.07C337.653 118.221 337.557 118.397 337.498 118.586C337.489 118.616 337.475 118.644 337.455 118.668C337.436 118.693 337.412 118.713 337.384 118.728C337.356 118.743 337.326 118.752 337.295 118.754C337.264 118.757 337.233 118.754 337.203 118.744C337.173 118.735 337.145 118.721 337.121 118.701C337.097 118.681 337.077 118.657 337.062 118.629C337.048 118.602 337.039 118.572 337.036 118.541C337.034 118.51 337.037 118.478 337.047 118.449C337.233 117.835 337.988 116.773 339.506 117.152C339.537 117.159 339.566 117.172 339.591 117.19C339.617 117.209 339.638 117.232 339.655 117.259C339.671 117.286 339.682 117.316 339.686 117.347C339.69 117.378 339.688 117.41 339.68 117.44C339.669 117.474 339.65 117.505 339.624 117.531Z" fill="#1C232B"/>
<path d="M342.52 125.797C342.329 125.816 342.136 125.78 341.965 125.692C341.419 125.411 341.209 124.658 341.409 123.682L341.753 120.457C341.769 120.405 341.803 120.361 341.848 120.332C341.893 120.302 341.946 120.29 342 120.295C342.053 120.301 342.103 120.325 342.141 120.363C342.178 120.402 342.202 120.452 342.206 120.505L341.855 123.759C341.672 124.688 341.897 125.153 342.171 125.3C342.446 125.446 342.848 125.3 343.182 124.949C343.202 124.925 343.226 124.906 343.254 124.893C343.281 124.879 343.31 124.87 343.341 124.868C343.371 124.866 343.402 124.869 343.431 124.879C343.46 124.888 343.487 124.903 343.51 124.923C343.532 124.941 343.55 124.963 343.564 124.988C343.577 125.013 343.585 125.04 343.588 125.068C343.59 125.096 343.587 125.125 343.579 125.152C343.57 125.179 343.556 125.204 343.538 125.225C343.278 125.531 342.917 125.734 342.52 125.797Z" fill="#1C232B"/>
<path d="M339.422 109.472C339.673 111.542 341.667 113.011 343.682 113.655C345.697 114.298 347.865 114.426 349.845 115.175C351.825 115.923 353.705 117.612 353.658 119.694C353.647 120.261 353.496 120.856 353.728 121.382C353.984 121.953 354.658 122.262 355.29 122.227C355.919 122.16 356.507 121.883 356.96 121.442C358.185 120.35 358.748 118.653 358.671 117.027C358.594 115.4 357.95 113.834 357.067 112.449C355.373 109.795 352.719 107.678 349.631 106.89C346.543 106.102 343.071 106.744 340.689 108.805" fill="#0B1C30"/>
<path d="M295.443 432.227L286.308 436.738C285.339 437.214 284.751 438.309 285.053 439.345C285.286 440.166 286.066 440.921 288.097 440.958C292.615 441.04 312.609 437.923 312.609 437.923V440.015L321.886 438.964C321.886 438.964 322.535 428.356 319.709 426.804L295.443 432.227Z" fill="#20120C"/>
<path d="M310.171 421.61L295.443 432.227C295.443 432.227 297.018 436.278 303.995 433.58C310.971 430.882 319.709 426.81 319.709 426.81L318.435 420.466L310.171 421.61Z" fill="#FFB1A5"/>
<path d="M319.709 426.811L325.774 387.472L311.064 388.869L308.547 425.412L319.709 426.811Z" fill="#FFB1A5"/>
<path d="M309.435 412.523L321.496 415.217L321.912 412.523H309.435Z" fill="#09090B"/>
<path d="M400.072 432.227L409.212 436.738C410.179 437.214 410.767 438.309 410.465 439.345C410.232 440.166 409.449 440.791 407.416 440.828C402.898 440.909 382.908 437.923 382.908 437.923V440.015L373.632 438.964C373.632 438.964 372.983 428.356 375.809 426.804L400.072 432.227Z" fill="#20120C"/>
<path d="M385.346 421.61L400.072 432.227C400.072 432.227 398.499 436.278 391.523 433.58C384.546 430.882 375.809 426.81 375.809 426.81L377.084 420.466L385.346 421.61Z" fill="#FFB1A5"/>
<path d="M375.809 426.811L369.744 387.472L384.456 388.869L386.97 425.412L375.809 426.811Z" fill="#FFB1A5"/>
<path d="M373.483 411.733L386.034 411.819L386.248 414.901L373.483 411.733Z" fill="#09090B"/>
<path d="M334.846 231.256C334.846 231.256 322.226 235.35 312.902 278.109C303.579 320.868 300.291 380.756 298.643 412.516H332.397L350.058 280.185L358.406 411.619L392.287 411.852C392.287 411.852 390.331 245.65 363.936 231.244L334.846 231.256Z" fill="#3A2C32"/>
<path d="M350.07 280.194L358.975 276.808" stroke="#09090B" stroke-width="0.178937" stroke-miterlimit="10"/>
<path d="M299.442 397.649H333.889" stroke="#09090B" stroke-width="0.178937" stroke-miterlimit="10"/>
<path d="M357.896 397.649H391.804" stroke="#09090B" stroke-width="0.178937" stroke-miterlimit="10"/>
<path d="M354.657 139.914V346.619H397.258C397.258 346.619 407.588 345.689 407.588 336.447C407.588 336.447 390.805 223.826 363.265 178.5L367.566 145.222C367.566 145.222 366.167 140.934 354.657 139.914Z" fill="white"/>
<path d="M344.012 138.91V345.613H301.408C301.408 345.613 291.081 344.697 291.081 335.446C291.081 335.446 307.864 222.822 335.404 177.498L331.102 144.218C331.102 144.218 332.499 139.931 344.012 138.91Z" fill="white"/>
<path d="M343.93 138.91H346.064L348.606 157.341L351.794 140.381L356.189 139.756L354.657 229.852H341.223L343.93 138.91Z" fill="#C2D6FF"/>
<path d="M354.657 229.852H341.223V232.864H354.657V229.852Z" fill="#090C09"/>
<path d="M349.849 229.852H346.408V232.864H349.849V229.852Z" fill="white"/>
<path d="M355.731 236.594C355.607 236.906 355.365 237.157 355.056 237.291C354.748 237.425 354.399 237.43 354.086 237.307L325.967 226.215C325.812 226.154 325.671 226.063 325.551 225.948C325.431 225.832 325.335 225.694 325.269 225.541C325.203 225.388 325.167 225.223 325.165 225.057C325.162 224.89 325.192 224.725 325.254 224.57L340.524 185.869C340.585 185.714 340.676 185.572 340.792 185.452C340.907 185.333 341.046 185.237 341.198 185.171C341.351 185.104 341.516 185.069 341.682 185.066C341.849 185.064 342.014 185.094 342.169 185.155L370.288 196.247C370.6 196.371 370.851 196.613 370.985 196.922C371.119 197.23 371.124 197.579 371.001 197.892L355.731 236.594Z" fill="#F8A87D"/>
<path d="M354.323 206.4C351.534 205.038 350.535 203.228 351.443 201.889C352.192 200.788 356.323 203.095 359.509 205.58C361.066 206.75 362.69 207.829 364.373 208.81" fill="#FC4F5A"/>
<path d="M364.373 208.81L358.478 223.343C358.478 223.343 343.735 214.57 343.658 212.395C343.612 211.094 344.637 211.043 344.637 211.043C344.637 211.043 343.04 210.346 342.989 209.295C342.938 208.245 343.97 207.943 343.97 207.943C343.97 207.943 342.678 207.132 343.524 206.007C344.453 204.782 349.449 205.424 354.323 206.4" fill="#FC4F5A"/>
<path d="M343.981 208.212C347.607 208.289 351.453 208.733 354.801 210.181C355.117 210.316 355.392 209.853 355.073 209.716C351.641 208.233 347.702 207.755 343.981 207.673C343.91 207.673 343.841 207.702 343.791 207.752C343.74 207.803 343.712 207.871 343.712 207.943C343.712 208.014 343.74 208.083 343.791 208.134C343.841 208.184 343.91 208.212 343.981 208.212Z" fill="#231F20"/>
<path d="M344.637 211.312C347.042 211.545 349.682 212.17 351.609 213.66C351.883 213.871 352.15 213.404 351.88 213.195C349.866 211.642 347.124 211.003 344.628 210.776C344.284 210.743 344.286 211.282 344.628 211.312H344.637Z" fill="#231F20"/>
<path d="M353.418 206.497L359.247 207.806C359.586 207.882 359.728 207.364 359.391 207.287L353.563 205.979C353.226 205.902 353.082 206.421 353.418 206.497Z" fill="#231F20"/>
<path d="M414.908 221.623C403.886 203.663 392.862 185.697 381.835 167.726L368.435 145.882C365.702 141.429 362.802 139.266 356.188 139.752L355.415 165.802C364.369 180.388 373.317 194.973 382.257 209.556L360.232 203.567C358.807 210.587 356.537 217.447 354.422 224.287L402.759 237.435C411.719 239.866 419.909 229.773 414.908 221.623Z" fill="white"/>
<path d="M342.348 163.248L338.406 149.835L340.235 148.459L337.791 147.186L342.833 140.916L343.003 141.051L338.123 147.116L340.64 148.427L338.655 149.919L342.554 163.185L342.348 163.248Z" fill="#C2D6FF"/>
<path d="M357.183 163.037L356.977 162.979L360.058 152.138L357.967 150.341L360.058 149.67C358.924 146.533 357.207 141.876 357.018 141.639L357.169 141.485C357.402 141.706 359.816 148.371 360.297 149.705L360.335 149.807L358.403 150.427L360.318 152.054L360.3 152.119L357.183 163.037Z" fill="#C2D6FF"/>
<path d="M354.413 224.28L386.803 238.913L385.058 232.864L354.413 224.28Z" fill="#133346"/>
<path d="M356.618 139.756H356.188V167.419H356.618V139.756Z" fill="#2F1D38"/>
<path d="M358.485 167.419C358.487 167.834 358.366 168.239 358.138 168.585C357.909 168.93 357.584 169.2 357.202 169.36C356.82 169.52 356.399 169.563 355.992 169.484C355.586 169.404 355.212 169.206 354.918 168.914C354.625 168.622 354.424 168.249 354.343 167.843C354.261 167.437 354.302 167.016 354.46 166.633C354.618 166.251 354.886 165.923 355.23 165.693C355.574 165.463 355.979 165.34 356.393 165.34C356.667 165.338 356.939 165.391 357.193 165.495C357.446 165.598 357.677 165.751 357.871 165.945C358.066 166.138 358.22 166.368 358.325 166.621C358.43 166.874 358.485 167.145 358.485 167.419Z" fill="#2F1D38"/>
<path d="M331.635 143.361C342.515 133.226 344.183 151.06 337.739 165.437C331.233 179.961 323.099 192.58 319.509 206.372C317.004 215.995 322.576 256.012 322.576 256.012C322.344 257.815 314.873 272.744 313.878 272.611C313.878 272.611 297.395 207.808 300.792 197.427C306.723 179.313 318.839 157.429 331.635 143.361Z" fill="white"/>
<path d="M325.623 256.416C325.623 256.416 321.517 265.76 313.878 272.616C313.878 272.616 313.571 273.743 314.078 274.173C314.585 274.603 316.255 272.764 319.537 268.626C321.735 265.853 325.869 258.633 326.13 257.597C326.39 256.56 325.623 256.416 325.623 256.416Z" fill="#2B545E"/>
<path d="M323.887 259.795L318.865 215.233" stroke="#212237" stroke-width="0.232386" stroke-miterlimit="10"/>
<path d="M313.648 271.505L311.81 264.431" stroke="#212237" stroke-width="0.232386" stroke-miterlimit="10"/>
<path d="M382.258 209.549L395.72 220.055" stroke="#09090B" stroke-width="0.116193" stroke-miterlimit="10"/>
<path d="M381.122 210.773V218.846" stroke="#09090B" stroke-width="0.116193" stroke-miterlimit="10"/>
<path d="M308.575 202.707L317.545 206.89C317.545 206.89 309.716 200.486 313.785 193.226" stroke="#09090B" stroke-width="0.116193" stroke-miterlimit="10"/>
<path opacity="0.5" d="M337.424 272.616C337.424 272.616 326.934 335.239 335.002 338.869C343.07 342.499 343.284 240.463 337.424 272.616Z" fill="#E2E2E2"/>
<path opacity="0.5" d="M325.774 337.054C325.774 337.054 300.153 336.031 300.33 338.964C300.507 341.897 350.437 337.054 325.774 337.054Z" fill="#E2E2E2"/>
<path opacity="0.4" d="M357.746 248.903C357.746 248.903 351.687 323.134 359.584 316.063C367.48 308.991 359.247 225.741 357.746 248.903Z" fill="#E2E2E2"/>
<path opacity="0.4" d="M323.325 158.733C323.325 158.733 299.7 193.823 303.937 195.647C308.173 197.472 330.538 147.592 323.325 158.733Z" fill="#E2E2E2"/>
<path d="M334.026 166.055C334.026 166.176 334.003 166.295 333.957 166.406C333.911 166.517 333.844 166.618 333.759 166.703C333.674 166.789 333.573 166.856 333.461 166.902C333.35 166.948 333.231 166.971 333.111 166.971C332.99 166.971 332.871 166.947 332.761 166.901C332.65 166.855 332.549 166.788 332.464 166.703C332.379 166.618 332.312 166.517 332.266 166.406C332.22 166.295 332.197 166.175 332.197 166.055C332.197 165.935 332.22 165.816 332.266 165.706C332.312 165.595 332.379 165.494 332.464 165.409C332.549 165.324 332.65 165.257 332.761 165.211C332.872 165.165 332.991 165.142 333.111 165.142C333.231 165.142 333.35 165.165 333.461 165.211C333.572 165.257 333.673 165.324 333.758 165.409C333.843 165.494 333.91 165.594 333.956 165.705C334.002 165.816 334.026 165.935 334.026 166.055Z" fill="#2F1D38"/>
<path d="M342.557 138.91H342.127V157.341H342.557V138.91Z" fill="#2F1D38"/>
<path d="M351.186 166.055H350.756C350.753 163.802 349.857 161.642 348.264 160.049C346.671 158.456 344.51 157.559 342.257 157.557H341.823C339.569 157.559 337.408 158.455 335.815 160.048C334.221 161.641 333.325 163.802 333.322 166.055H332.895C332.897 163.688 333.838 161.419 335.512 159.745C337.186 158.071 339.456 157.13 341.823 157.127H342.257C344.624 157.13 346.894 158.071 348.568 159.745C350.242 161.419 351.183 163.688 351.186 166.055Z" fill="#231F20"/>
<path d="M351.883 166.055C351.883 166.175 351.859 166.295 351.814 166.406C351.768 166.517 351.701 166.618 351.616 166.703C351.531 166.788 351.43 166.855 351.319 166.901C351.208 166.947 351.089 166.971 350.969 166.971C350.849 166.971 350.73 166.948 350.619 166.902C350.507 166.856 350.406 166.789 350.321 166.703C350.236 166.618 350.169 166.517 350.123 166.406C350.077 166.295 350.053 166.176 350.054 166.055C350.054 165.935 350.077 165.816 350.123 165.705C350.169 165.594 350.237 165.494 350.322 165.409C350.407 165.324 350.508 165.257 350.619 165.211C350.73 165.165 350.849 165.142 350.969 165.142C351.212 165.142 351.444 165.238 351.615 165.41C351.786 165.581 351.883 165.813 351.883 166.055Z" fill="#2F1D38"/>
<path d="M290.029 157.813H262.098V158.417H290.029V157.813Z" fill="white"/>
<path d="M296.891 143.456H255.236V144.06H296.891V143.456Z" fill="white"/>
<path d="M302.468 129.775H249.658V130.38H302.468V129.775Z" fill="white"/>
<path d="M309.484 115.351H242.645V115.955H309.484V115.351Z" fill="white"/>
</svg>
