<svg width="21" height="21" viewBox="0 0 21 21" fill="none" xmlns="http://www.w3.org/2000/svg">
<path d="M20.6307 8.37656H19.7917V8.33333H10.4167V12.5H16.3036C15.4448 14.9255 13.137 16.6667 10.4167 16.6667C6.9651 16.6667 4.16667 13.8682 4.16667 10.4167C4.16667 6.9651 6.9651 4.16667 10.4167 4.16667C12.0099 4.16667 13.4594 4.76771 14.563 5.74948L17.5094 2.80312C15.649 1.06927 13.1604 0 10.4167 0C4.66406 0 0 4.66406 0 10.4167C0 16.1693 4.66406 20.8333 10.4167 20.8333C16.1693 20.8333 20.8333 16.1693 20.8333 10.4167C20.8333 9.71823 20.7615 9.03646 20.6307 8.37656Z" fill="#FFC107"/>
<path d="M1.20068 5.56823L4.62308 8.07812C5.54912 5.78542 7.79183 4.16667 10.4163 4.16667C12.0095 4.16667 13.459 4.76771 14.5627 5.74948L17.509 2.80312C15.6486 1.06927 13.1601 0 10.4163 0C6.41527 0 2.94548 2.25885 1.20068 5.56823Z" fill="#FF3D00"/>
<path d="M10.4165 20.8333C13.1071 20.8333 15.5519 19.8036 17.4004 18.1291L14.1764 15.401C13.1306 16.1932 11.8306 16.6666 10.4165 16.6666C7.70713 16.6666 5.40661 14.939 4.53994 12.5281L1.14307 15.1453C2.86702 18.5187 6.36807 20.8333 10.4165 20.8333Z" fill="#4CAF50"/>
<path d="M20.6306 8.37648H19.7915V8.33325H10.4165V12.4999H16.3035C15.891 13.665 15.1415 14.6697 14.1748 15.4015L14.1764 15.4004L17.4004 18.1286C17.1722 18.3359 20.8332 15.6249 20.8332 10.4166C20.8332 9.71815 20.7613 9.03638 20.6306 8.37648Z" fill="#1976D2"/>
</svg>
