<svg width="21" height="20" viewBox="0 0 21 20" fill="none" xmlns="http://www.w3.org/2000/svg">
<path d="M2.3026 4.6875H2.32969C3.78281 4.6875 4.6875 3.64583 4.6875 2.34375C4.66042 1.01302 3.78281 0 2.35729 0C0.931771 0 0 1.01302 0 2.34375C0 3.64583 0.904166 4.6875 2.3026 4.6875ZM0 6.25H4.6875V19.7917H0V6.25ZM20.8333 11.1979C20.8333 8.4651 18.6182 6.25 15.8854 6.25C14.2953 6.25 12.8844 7.00312 11.9792 8.16875V6.25H7.29167V19.7917H11.9792V11.9792C11.9792 10.8286 12.912 9.89583 14.0625 9.89583C15.213 9.89583 16.1458 10.8286 16.1458 11.9792V19.7917H20.8333C20.8333 19.7917 20.8333 11.9557 20.8333 11.1979Z" fill="#0288D1"/>
</svg>
