<svg width="25" height="22" viewBox="0 0 25 22" fill="none" xmlns="http://www.w3.org/2000/svg">
<path d="M12.1031 0.343801C12.0518 0.344615 12.0012 0.355527 11.9541 0.375914C11.907 0.396301 11.8644 0.425763 11.8287 0.462617C11.793 0.499472 11.7649 0.542997 11.7461 0.590707C11.7272 0.638417 11.7179 0.689376 11.7188 0.740676V1.52193C11.7188 1.62553 11.7599 1.72488 11.8332 1.79814C11.9064 1.8714 12.0058 1.91255 12.1094 1.91255C12.213 1.91255 12.3123 1.8714 12.3856 1.79814C12.4588 1.72488 12.5 1.62553 12.5 1.52193V0.740676C12.5008 0.688324 12.4912 0.636338 12.4715 0.587805C12.4519 0.539272 12.4227 0.495184 12.3856 0.458161C12.3486 0.421139 12.3045 0.391937 12.256 0.372291C12.2075 0.352645 12.1555 0.342956 12.1031 0.343801ZM9.98672 1.35708C9.90865 1.35661 9.83223 1.37954 9.76731 1.42292C9.7024 1.4663 9.65198 1.52814 9.62255 1.60045C9.59312 1.67277 9.58603 1.75224 9.60221 1.82862C9.61838 1.905 9.65707 1.97478 9.71328 2.02896L10.2664 2.58052C10.3028 2.61679 10.3459 2.64554 10.3934 2.66512C10.4409 2.68471 10.4918 2.69476 10.5431 2.69468C10.5945 2.69461 10.6453 2.68442 10.6928 2.6647C10.7402 2.64498 10.7833 2.61611 10.8195 2.57974C10.8558 2.54337 10.8845 2.50021 10.9041 2.45273C10.9237 2.40525 10.9338 2.35438 10.9337 2.30301C10.9336 2.25165 10.9234 2.20081 10.9037 2.15338C10.884 2.10596 10.8551 2.06288 10.8187 2.02661L10.2664 1.47583C10.2301 1.43836 10.1866 1.40854 10.1386 1.38815C10.0905 1.36775 10.0389 1.35719 9.98672 1.35708ZM14.2211 1.35708C14.1195 1.36018 14.0231 1.40278 13.9523 1.47583L13.4 2.02661C13.3636 2.06288 13.3347 2.10597 13.3149 2.15341C13.2951 2.20086 13.2849 2.25173 13.2848 2.30313C13.2847 2.35453 13.2947 2.40544 13.3143 2.45297C13.3338 2.5005 13.3626 2.54371 13.3988 2.58013C13.4351 2.61655 13.4782 2.64547 13.5256 2.66524C13.5731 2.68501 13.6239 2.69524 13.6753 2.69535C13.7267 2.69546 13.7777 2.68544 13.8252 2.66588C13.8727 2.64631 13.9159 2.61757 13.9523 2.5813L14.5047 2.02818C14.5616 1.97341 14.6006 1.90268 14.6165 1.82531C14.6323 1.74795 14.6244 1.66758 14.5937 1.59482C14.563 1.52205 14.5109 1.46031 14.4444 1.41773C14.3779 1.37514 14.3 1.35451 14.2211 1.35708ZM12.1094 2.69849C11.4672 2.69849 10.9375 3.22739 10.9375 3.87036V4.25943H0.390625C0.287025 4.25943 0.187668 4.30058 0.114411 4.37384C0.041155 4.44709 0 4.54645 0 4.65005L0 17.9251C0 18.0287 0.041155 18.128 0.114411 18.2013C0.187668 18.2745 0.287025 18.3157 0.390625 18.3157H2.4875C2.39504 18.5654 2.34641 18.8291 2.34375 19.0954C2.34375 20.3844 3.39844 21.4376 4.6875 21.4376C5.97656 21.4376 7.03125 20.3844 7.03125 19.0954C7.03125 18.8211 6.975 18.5602 6.8875 18.3157H17.3312C17.2388 18.5654 17.1902 18.8291 17.1875 19.0954C17.1875 20.3844 18.2422 21.4376 19.5312 21.4376C20.8203 21.4376 21.875 20.3844 21.875 19.0954C21.875 18.8211 21.8188 18.5602 21.7313 18.3157H24.6094C24.713 18.3157 24.8123 18.2745 24.8856 18.2013C24.9588 18.128 25 18.0287 25 17.9251V13.6297C24.999 13.0086 24.7517 12.4132 24.3123 11.9742C23.8729 11.5351 23.2774 11.2882 22.6562 11.2876H21.875V8.9649C21.8744 8.13643 21.5449 7.34209 20.9589 6.75642C20.373 6.17076 19.5785 5.84166 18.75 5.84146H15.625V4.65005C15.625 4.54645 15.5838 4.44709 15.5106 4.37384C15.4373 4.30058 15.338 4.25943 15.2344 4.25943H13.2812V3.87036C13.2812 3.22739 12.7516 2.69849 12.1094 2.69849ZM12.1094 3.47974C12.3328 3.47974 12.5 3.64693 12.5 3.87036V4.25943H11.7188V3.87036C11.7188 3.64693 11.8859 3.47974 12.1094 3.47974ZM0.78125 5.04068H14.8438V15.1907H0.78125V14.411H1.95937C2.06298 14.411 2.16233 14.3698 2.23559 14.2966C2.30885 14.2233 2.35 14.124 2.35 14.0204C2.35 13.9168 2.30885 13.8174 2.23559 13.7442C2.16233 13.6709 2.06298 13.6297 1.95937 13.6297H0.78125V5.04068ZM15.625 6.62271H18.75C20.0547 6.62271 21.0938 7.66099 21.0938 8.9649V12.0688H22.6562C23.5289 12.0688 24.2188 12.7579 24.2188 13.6297H23.0406C22.937 13.6297 22.8377 13.6709 22.7644 13.7442C22.6912 13.8174 22.65 13.9168 22.65 14.0204C22.65 14.124 22.6912 14.2233 22.7644 14.2966C22.8377 14.3698 22.937 14.411 23.0406 14.411H24.2188V15.1907H15.625V6.62271ZM7.42188 7.38286C7.31827 7.38286 7.21892 7.42402 7.14566 7.49727C7.0724 7.57053 7.03125 7.66989 7.03125 7.77349V8.94536H5.85938C5.75577 8.94536 5.65642 8.98652 5.58316 9.05978C5.5099 9.13303 5.46875 9.23239 5.46875 9.33599V10.8969C5.46875 11.0005 5.5099 11.0999 5.58316 11.1731C5.65642 11.2464 5.75577 11.2876 5.85938 11.2876H7.03125V12.4594C7.03125 12.563 7.0724 12.6624 7.14566 12.7356C7.21892 12.8089 7.31827 12.8501 7.42188 12.8501H8.98438C9.08798 12.8501 9.18733 12.8089 9.26059 12.7356C9.33385 12.6624 9.375 12.563 9.375 12.4594V11.2876H10.5469C10.6505 11.2876 10.7498 11.2464 10.8231 11.1731C10.8963 11.0999 10.9375 11.0005 10.9375 10.8969V9.33599C10.9375 9.23239 10.8963 9.13303 10.8231 9.05978C10.7498 8.98652 10.6505 8.94536 10.5469 8.94536H9.375V7.77349C9.375 7.66989 9.33385 7.57053 9.26059 7.49727C9.18733 7.42402 9.08798 7.38286 8.98438 7.38286H7.42188ZM16.4062 7.38286V11.2633H20.3078L20.3125 10.8766L20.3172 10.4524V9.32818C20.3172 8.76958 20.1281 8.2688 19.7742 7.91802C19.4203 7.56802 18.9172 7.38286 18.3594 7.38286H16.4062ZM7.8125 8.16411H8.59375V9.33599C8.59375 9.43959 8.6349 9.53895 8.70816 9.6122C8.78142 9.68546 8.88077 9.72661 8.98438 9.72661H10.1562V10.5063H8.98438C8.88077 10.5063 8.78142 10.5475 8.70816 10.6207C8.6349 10.694 8.59375 10.7933 8.59375 10.8969V12.0688H7.8125V10.8969C7.8125 10.7933 7.77135 10.694 7.69809 10.6207C7.62483 10.5475 7.52548 10.5063 7.42188 10.5063H6.25V9.72661H7.42188C7.52548 9.72661 7.62483 9.68546 7.69809 9.6122C7.77135 9.53895 7.8125 9.43959 7.8125 9.33599V8.16411ZM17.1875 8.16411H18.3594C18.7508 8.16411 19.032 8.28365 19.2242 8.47349C19.4172 8.66411 19.5359 8.93911 19.5359 9.32818V10.4821H17.1875V8.16411ZM16.7578 12.0688C16.6542 12.074 16.5569 12.1201 16.4873 12.197C16.4177 12.2739 16.3815 12.3754 16.3867 12.479C16.3919 12.5826 16.438 12.6799 16.5149 12.7495C16.5919 12.819 16.6933 12.8552 16.7969 12.8501H17.5781C17.6817 12.8501 17.7811 12.8089 17.8543 12.7356C17.9276 12.6624 17.9688 12.563 17.9688 12.4594C17.9688 12.3558 17.9276 12.2565 17.8543 12.1832C17.7811 12.11 17.6817 12.0688 17.5781 12.0688H16.7969C16.7839 12.0681 16.7708 12.0681 16.7578 12.0688ZM0.78125 15.9719H24.2188V17.5344H21.2648C20.8352 17.0579 20.2195 16.7532 19.5312 16.7532C18.843 16.7532 18.2273 17.0579 17.7977 17.5344H6.42188C5.99219 17.0579 5.37656 16.7532 4.68828 16.7532C4 16.7532 3.38438 17.0579 2.95469 17.5344H0.78125V15.9719ZM4.6875 17.5344C5.55469 17.5344 6.25 18.2282 6.25 19.0954C6.25 19.9626 5.55469 20.6563 4.6875 20.6563C3.82031 20.6563 3.125 19.9626 3.125 19.0954C3.125 18.2282 3.82031 17.5344 4.6875 17.5344ZM19.5312 17.5344C20.3984 17.5344 21.0938 18.2282 21.0938 19.0954C21.0938 19.9626 20.3984 20.6563 19.5312 20.6563C18.6641 20.6563 17.9688 19.9626 17.9688 19.0954C17.9688 18.2282 18.6641 17.5344 19.5312 17.5344ZM4.66016 18.7047C4.56137 18.7117 4.4689 18.7559 4.40145 18.8284C4.33401 18.9009 4.29663 18.9963 4.29688 19.0954C4.29688 19.199 4.33803 19.2983 4.41129 19.3716C4.48454 19.4448 4.5839 19.486 4.6875 19.486C4.7911 19.486 4.89046 19.4448 4.96371 19.3716C5.03697 19.2983 5.07812 19.199 5.07812 19.0954C5.07812 18.9918 5.03697 18.8924 4.96371 18.8192C4.89046 18.7459 4.7911 18.7047 4.6875 18.7047C4.67839 18.7044 4.66927 18.7044 4.66016 18.7047ZM19.5039 18.7047C19.4051 18.7117 19.3126 18.7559 19.2452 18.8284C19.1778 18.9009 19.1404 18.9963 19.1406 19.0954C19.1406 19.199 19.1818 19.2983 19.255 19.3716C19.3283 19.4448 19.4277 19.486 19.5312 19.486C19.6348 19.486 19.7342 19.4448 19.8075 19.3716C19.8807 19.2983 19.9219 19.199 19.9219 19.0954C19.9219 18.9918 19.8807 18.8924 19.8075 18.8192C19.7342 18.7459 19.6348 18.7047 19.5312 18.7047C19.5221 18.7044 19.513 18.7044 19.5039 18.7047Z" fill="#FF9F1C"/>
</svg>
